G04 #@! TF.GenerationSoftware,KiCad,Pcbnew,(5.1.2-1)-1*
G04 #@! TF.CreationDate,2019-09-23T09:48:08+02:00*
G04 #@! TF.ProjectId,briefkastensensor,62726965-666b-4617-9374-656e73656e73,rev?*
G04 #@! TF.SameCoordinates,Original*
G04 #@! TF.FileFunction,Copper,L2,Bot*
G04 #@! TF.FilePolarity,Positive*
%FSLAX46Y46*%
G04 Gerber Fmt 4.6, Leading zero omitted, Abs format (unit mm)*
G04 Created by KiCad (PCBNEW (5.1.2-1)-1) date 2019-09-23 09:48:08*
%MOMM*%
%LPD*%
G04 APERTURE LIST*
%ADD10C,0.800000*%
%ADD11C,0.250000*%
%ADD12C,0.254000*%
G04 APERTURE END LIST*
D10*
X149542500Y-83289147D03*
X168706800Y-84480400D03*
X144182000Y-93421200D03*
X146862800Y-94945200D03*
X143500000Y-75844400D03*
X127500000Y-87500000D03*
X139000000Y-87500000D03*
X119500000Y-87500000D03*
X111000000Y-87500000D03*
X151500000Y-93000000D03*
X127500000Y-76000000D03*
X135500000Y-76000000D03*
X168000000Y-93000000D03*
X160500000Y-93000000D03*
X143500000Y-99000000D03*
X134048500Y-98996500D03*
X168000000Y-87500000D03*
X111000000Y-82000000D03*
X119500000Y-82000000D03*
X127500000Y-82000000D03*
X127500000Y-93000000D03*
X119500000Y-93000000D03*
X111000000Y-93000000D03*
X120650000Y-76708000D03*
X119500000Y-99000000D03*
X127500000Y-99000000D03*
X183515000Y-82550000D03*
X183500000Y-87500000D03*
X175500000Y-93000000D03*
X183500000Y-93000000D03*
X175500000Y-70000000D03*
X175500000Y-82000000D03*
X175500000Y-99000000D03*
X160000000Y-99000000D03*
X168000000Y-99000000D03*
X151500000Y-99000000D03*
X168000000Y-76000000D03*
X183500000Y-76000000D03*
X183500000Y-99000000D03*
X111000000Y-76000000D03*
X111000000Y-99000000D03*
X191643000Y-86169500D03*
X175500000Y-87500000D03*
X102006400Y-105003600D03*
X102006400Y-69983600D03*
X155500000Y-84772500D03*
X192214500Y-90551000D03*
X136000000Y-93000000D03*
X141000000Y-93000000D03*
X163449000Y-81978500D03*
X168000000Y-105000000D03*
X160000000Y-105000000D03*
X151500000Y-105000000D03*
X143500000Y-105003600D03*
X135500000Y-105000000D03*
X127500000Y-105000000D03*
X192000000Y-70000000D03*
X183500000Y-70000000D03*
X175500000Y-76000000D03*
X156750000Y-70000000D03*
X135500000Y-70000000D03*
X127500000Y-70000000D03*
X119500000Y-70000000D03*
X111000000Y-70000000D03*
X102000000Y-87500000D03*
X102000000Y-93000000D03*
X102000000Y-99000000D03*
X102000000Y-76000000D03*
X102000000Y-82000000D03*
X175500000Y-105000000D03*
X141071600Y-71831200D03*
X192000000Y-99000000D03*
X192000000Y-105000000D03*
X165750000Y-70000000D03*
X192000000Y-76000000D03*
X192000000Y-82000000D03*
X183500000Y-105000000D03*
X192000000Y-93000000D03*
X119500000Y-105000000D03*
X149961600Y-78500000D03*
X111000000Y-105000000D03*
X147000000Y-91000000D03*
X142500000Y-90750000D03*
X144462500Y-84264500D03*
X165608000Y-84455000D03*
D11*
X167515547Y-83289147D02*
X168706800Y-84480400D01*
X149735547Y-83289147D02*
X167515547Y-83289147D01*
X144842400Y-94945200D02*
X146862800Y-94945200D01*
X144182000Y-94284800D02*
X144842400Y-94945200D01*
X144182000Y-94284800D02*
X144182000Y-93421200D01*
X142750000Y-91000000D02*
X142500000Y-90750000D01*
X147000000Y-91000000D02*
X142750000Y-91000000D01*
X144477000Y-84250000D02*
X144462500Y-84264500D01*
X144462500Y-84264500D02*
X146431000Y-86233000D01*
X146431000Y-86233000D02*
X162052000Y-86233000D01*
X162052000Y-86233000D02*
X162560000Y-86233000D01*
X163830000Y-86233000D02*
X165608000Y-84455000D01*
X162877500Y-86233000D02*
X163830000Y-86233000D01*
X162052000Y-86233000D02*
X162877500Y-86233000D01*
D12*
G36*
X192292054Y-68252582D02*
G01*
X192532083Y-68467244D01*
X192746580Y-68707423D01*
X192932850Y-68970098D01*
X193088549Y-69251965D01*
X193211730Y-69549493D01*
X193300837Y-69858938D01*
X193354753Y-70176407D01*
X193373000Y-70501470D01*
X193373000Y-104496440D01*
X193354737Y-104821646D01*
X193300772Y-105139266D01*
X193211591Y-105448818D01*
X193088300Y-105746468D01*
X192932471Y-106028421D01*
X192746049Y-106291156D01*
X192531376Y-106531376D01*
X192291156Y-106746049D01*
X192229213Y-106790000D01*
X103034721Y-106790000D01*
X102555867Y-106743048D01*
X102128647Y-106614063D01*
X101734616Y-106404554D01*
X101388786Y-106122501D01*
X101104328Y-105778651D01*
X100892073Y-105386093D01*
X100760109Y-104959788D01*
X100710000Y-104483036D01*
X100710000Y-102545098D01*
X101770315Y-102545098D01*
X101840583Y-103171555D01*
X102031193Y-103772432D01*
X102334883Y-104324843D01*
X102740087Y-104807747D01*
X103231371Y-105202749D01*
X103790021Y-105494804D01*
X104394758Y-105672788D01*
X105022549Y-105729921D01*
X105649482Y-105664028D01*
X106251675Y-105477618D01*
X106806193Y-105177791D01*
X107291913Y-104775968D01*
X107690336Y-104287455D01*
X107986284Y-103730857D01*
X108168485Y-103127377D01*
X108230000Y-102500000D01*
X108228741Y-102409813D01*
X108149732Y-101784398D01*
X107950752Y-101186241D01*
X107639378Y-100638124D01*
X107227471Y-100160925D01*
X106730721Y-99772821D01*
X106168047Y-99488594D01*
X105560884Y-99319071D01*
X104932356Y-99270708D01*
X104306405Y-99345349D01*
X103706873Y-99540148D01*
X103156595Y-99847688D01*
X102676532Y-100256253D01*
X102284970Y-100750282D01*
X101996822Y-101310958D01*
X101823064Y-101916923D01*
X101770315Y-102545098D01*
X100710000Y-102545098D01*
X100710000Y-93319261D01*
X143147000Y-93319261D01*
X143147000Y-93523139D01*
X143186774Y-93723098D01*
X143264795Y-93911456D01*
X143378063Y-94080974D01*
X143422000Y-94124911D01*
X143422000Y-94247478D01*
X143418324Y-94284800D01*
X143422000Y-94322122D01*
X143422000Y-94322132D01*
X143432997Y-94433785D01*
X143459430Y-94520924D01*
X143476454Y-94577046D01*
X143547026Y-94709076D01*
X143586871Y-94757626D01*
X143641999Y-94824801D01*
X143671002Y-94848603D01*
X144278600Y-95456202D01*
X144302399Y-95485201D01*
X144418124Y-95580174D01*
X144550153Y-95650746D01*
X144693414Y-95694203D01*
X144805067Y-95705200D01*
X144805075Y-95705200D01*
X144842400Y-95708876D01*
X144879725Y-95705200D01*
X146159089Y-95705200D01*
X146203026Y-95749137D01*
X146372544Y-95862405D01*
X146560902Y-95940426D01*
X146760861Y-95980200D01*
X146964739Y-95980200D01*
X147164698Y-95940426D01*
X147353056Y-95862405D01*
X147522574Y-95749137D01*
X147666737Y-95604974D01*
X147780005Y-95435456D01*
X147858026Y-95247098D01*
X147897800Y-95047139D01*
X147897800Y-94843261D01*
X147858026Y-94643302D01*
X147780005Y-94454944D01*
X147666737Y-94285426D01*
X147522574Y-94141263D01*
X147353056Y-94027995D01*
X147164698Y-93949974D01*
X146964739Y-93910200D01*
X146760861Y-93910200D01*
X146560902Y-93949974D01*
X146372544Y-94027995D01*
X146203026Y-94141263D01*
X146159089Y-94185200D01*
X145157202Y-94185200D01*
X145012789Y-94040787D01*
X145099205Y-93911456D01*
X145177226Y-93723098D01*
X145217000Y-93523139D01*
X145217000Y-93319261D01*
X145177226Y-93119302D01*
X145099205Y-92930944D01*
X144985937Y-92761426D01*
X144841774Y-92617263D01*
X144672256Y-92503995D01*
X144483898Y-92425974D01*
X144283939Y-92386200D01*
X144080061Y-92386200D01*
X143880102Y-92425974D01*
X143691744Y-92503995D01*
X143522226Y-92617263D01*
X143378063Y-92761426D01*
X143264795Y-92930944D01*
X143186774Y-93119302D01*
X143147000Y-93319261D01*
X100710000Y-93319261D01*
X100710000Y-90648061D01*
X141465000Y-90648061D01*
X141465000Y-90851939D01*
X141504774Y-91051898D01*
X141582795Y-91240256D01*
X141696063Y-91409774D01*
X141840226Y-91553937D01*
X142009744Y-91667205D01*
X142198102Y-91745226D01*
X142398061Y-91785000D01*
X142601939Y-91785000D01*
X142722673Y-91760985D01*
X142749999Y-91763676D01*
X142787322Y-91760000D01*
X146296289Y-91760000D01*
X146340226Y-91803937D01*
X146509744Y-91917205D01*
X146698102Y-91995226D01*
X146898061Y-92035000D01*
X147101939Y-92035000D01*
X147301898Y-91995226D01*
X147490256Y-91917205D01*
X147659774Y-91803937D01*
X147803937Y-91659774D01*
X147917205Y-91490256D01*
X147995226Y-91301898D01*
X148035000Y-91101939D01*
X148035000Y-90898061D01*
X147995226Y-90698102D01*
X147917205Y-90509744D01*
X147803937Y-90340226D01*
X147659774Y-90196063D01*
X147490256Y-90082795D01*
X147301898Y-90004774D01*
X147101939Y-89965000D01*
X146898061Y-89965000D01*
X146698102Y-90004774D01*
X146509744Y-90082795D01*
X146340226Y-90196063D01*
X146296289Y-90240000D01*
X143404013Y-90240000D01*
X143303937Y-90090226D01*
X143159774Y-89946063D01*
X142990256Y-89832795D01*
X142801898Y-89754774D01*
X142601939Y-89715000D01*
X142398061Y-89715000D01*
X142198102Y-89754774D01*
X142009744Y-89832795D01*
X141840226Y-89946063D01*
X141696063Y-90090226D01*
X141582795Y-90259744D01*
X141504774Y-90448102D01*
X141465000Y-90648061D01*
X100710000Y-90648061D01*
X100710000Y-84162561D01*
X143427500Y-84162561D01*
X143427500Y-84366439D01*
X143467274Y-84566398D01*
X143545295Y-84754756D01*
X143658563Y-84924274D01*
X143802726Y-85068437D01*
X143972244Y-85181705D01*
X144160602Y-85259726D01*
X144360561Y-85299500D01*
X144422698Y-85299500D01*
X145867205Y-86744008D01*
X145890999Y-86773001D01*
X145919992Y-86796795D01*
X145919996Y-86796799D01*
X145990685Y-86854811D01*
X146006724Y-86867974D01*
X146138753Y-86938546D01*
X146282014Y-86982003D01*
X146393667Y-86993000D01*
X146393676Y-86993000D01*
X146430999Y-86996676D01*
X146468322Y-86993000D01*
X163792678Y-86993000D01*
X163830000Y-86996676D01*
X163867322Y-86993000D01*
X163867333Y-86993000D01*
X163978986Y-86982003D01*
X164122247Y-86938546D01*
X164254276Y-86867974D01*
X164370001Y-86773001D01*
X164393804Y-86743997D01*
X165647802Y-85490000D01*
X165709939Y-85490000D01*
X165909898Y-85450226D01*
X166098256Y-85372205D01*
X166267774Y-85258937D01*
X166411937Y-85114774D01*
X166525205Y-84945256D01*
X166603226Y-84756898D01*
X166643000Y-84556939D01*
X166643000Y-84353061D01*
X166603226Y-84153102D01*
X166560166Y-84049147D01*
X167200746Y-84049147D01*
X167671800Y-84520202D01*
X167671800Y-84582339D01*
X167711574Y-84782298D01*
X167789595Y-84970656D01*
X167902863Y-85140174D01*
X168047026Y-85284337D01*
X168216544Y-85397605D01*
X168404902Y-85475626D01*
X168604861Y-85515400D01*
X168808739Y-85515400D01*
X169008698Y-85475626D01*
X169197056Y-85397605D01*
X169366574Y-85284337D01*
X169510737Y-85140174D01*
X169624005Y-84970656D01*
X169702026Y-84782298D01*
X169741800Y-84582339D01*
X169741800Y-84378461D01*
X169702026Y-84178502D01*
X169624005Y-83990144D01*
X169510737Y-83820626D01*
X169366574Y-83676463D01*
X169197056Y-83563195D01*
X169008698Y-83485174D01*
X168808739Y-83445400D01*
X168746602Y-83445400D01*
X168079351Y-82778150D01*
X168055548Y-82749146D01*
X167939823Y-82654173D01*
X167807794Y-82583601D01*
X167664533Y-82540144D01*
X167552880Y-82529147D01*
X167552869Y-82529147D01*
X167515547Y-82525471D01*
X167478225Y-82529147D01*
X150246211Y-82529147D01*
X150202274Y-82485210D01*
X150032756Y-82371942D01*
X149844398Y-82293921D01*
X149644439Y-82254147D01*
X149440561Y-82254147D01*
X149240602Y-82293921D01*
X149052244Y-82371942D01*
X148882726Y-82485210D01*
X148738563Y-82629373D01*
X148625295Y-82798891D01*
X148547274Y-82987249D01*
X148507500Y-83187208D01*
X148507500Y-83391086D01*
X148547274Y-83591045D01*
X148625295Y-83779403D01*
X148738563Y-83948921D01*
X148882726Y-84093084D01*
X149052244Y-84206352D01*
X149240602Y-84284373D01*
X149440561Y-84324147D01*
X149644439Y-84324147D01*
X149844398Y-84284373D01*
X150032756Y-84206352D01*
X150202274Y-84093084D01*
X150246211Y-84049147D01*
X164655834Y-84049147D01*
X164612774Y-84153102D01*
X164573000Y-84353061D01*
X164573000Y-84415198D01*
X163515199Y-85473000D01*
X146745803Y-85473000D01*
X145497500Y-84224698D01*
X145497500Y-84162561D01*
X145457726Y-83962602D01*
X145379705Y-83774244D01*
X145266437Y-83604726D01*
X145122274Y-83460563D01*
X144952756Y-83347295D01*
X144764398Y-83269274D01*
X144564439Y-83229500D01*
X144360561Y-83229500D01*
X144160602Y-83269274D01*
X143972244Y-83347295D01*
X143802726Y-83460563D01*
X143658563Y-83604726D01*
X143545295Y-83774244D01*
X143467274Y-83962602D01*
X143427500Y-84162561D01*
X100710000Y-84162561D01*
X100710000Y-72545098D01*
X101770315Y-72545098D01*
X101840583Y-73171555D01*
X102031193Y-73772432D01*
X102334883Y-74324843D01*
X102740087Y-74807747D01*
X103231371Y-75202749D01*
X103790021Y-75494804D01*
X104394758Y-75672788D01*
X105022549Y-75729921D01*
X105649482Y-75664028D01*
X106251675Y-75477618D01*
X106806193Y-75177791D01*
X107291913Y-74775968D01*
X107690336Y-74287455D01*
X107986284Y-73730857D01*
X108168485Y-73127377D01*
X108230000Y-72500000D01*
X108228741Y-72409813D01*
X108149732Y-71784398D01*
X107950752Y-71186241D01*
X107639378Y-70638124D01*
X107227471Y-70160925D01*
X106730721Y-69772821D01*
X106168047Y-69488594D01*
X105560884Y-69319071D01*
X104932356Y-69270708D01*
X104306405Y-69345349D01*
X103706873Y-69540148D01*
X103156595Y-69847688D01*
X102676532Y-70256253D01*
X102284970Y-70750282D01*
X101996822Y-71310958D01*
X101823064Y-71916923D01*
X101770315Y-72545098D01*
X100710000Y-72545098D01*
X100710000Y-70534721D01*
X100756953Y-70055866D01*
X100885938Y-69628645D01*
X101095446Y-69234616D01*
X101377499Y-68888786D01*
X101721351Y-68604327D01*
X102113910Y-68392071D01*
X102540213Y-68260108D01*
X103016964Y-68210000D01*
X192232094Y-68210000D01*
X192292054Y-68252582D01*
X192292054Y-68252582D01*
G37*
X192292054Y-68252582D02*
X192532083Y-68467244D01*
X192746580Y-68707423D01*
X192932850Y-68970098D01*
X193088549Y-69251965D01*
X193211730Y-69549493D01*
X193300837Y-69858938D01*
X193354753Y-70176407D01*
X193373000Y-70501470D01*
X193373000Y-104496440D01*
X193354737Y-104821646D01*
X193300772Y-105139266D01*
X193211591Y-105448818D01*
X193088300Y-105746468D01*
X192932471Y-106028421D01*
X192746049Y-106291156D01*
X192531376Y-106531376D01*
X192291156Y-106746049D01*
X192229213Y-106790000D01*
X103034721Y-106790000D01*
X102555867Y-106743048D01*
X102128647Y-106614063D01*
X101734616Y-106404554D01*
X101388786Y-106122501D01*
X101104328Y-105778651D01*
X100892073Y-105386093D01*
X100760109Y-104959788D01*
X100710000Y-104483036D01*
X100710000Y-102545098D01*
X101770315Y-102545098D01*
X101840583Y-103171555D01*
X102031193Y-103772432D01*
X102334883Y-104324843D01*
X102740087Y-104807747D01*
X103231371Y-105202749D01*
X103790021Y-105494804D01*
X104394758Y-105672788D01*
X105022549Y-105729921D01*
X105649482Y-105664028D01*
X106251675Y-105477618D01*
X106806193Y-105177791D01*
X107291913Y-104775968D01*
X107690336Y-104287455D01*
X107986284Y-103730857D01*
X108168485Y-103127377D01*
X108230000Y-102500000D01*
X108228741Y-102409813D01*
X108149732Y-101784398D01*
X107950752Y-101186241D01*
X107639378Y-100638124D01*
X107227471Y-100160925D01*
X106730721Y-99772821D01*
X106168047Y-99488594D01*
X105560884Y-99319071D01*
X104932356Y-99270708D01*
X104306405Y-99345349D01*
X103706873Y-99540148D01*
X103156595Y-99847688D01*
X102676532Y-100256253D01*
X102284970Y-100750282D01*
X101996822Y-101310958D01*
X101823064Y-101916923D01*
X101770315Y-102545098D01*
X100710000Y-102545098D01*
X100710000Y-93319261D01*
X143147000Y-93319261D01*
X143147000Y-93523139D01*
X143186774Y-93723098D01*
X143264795Y-93911456D01*
X143378063Y-94080974D01*
X143422000Y-94124911D01*
X143422000Y-94247478D01*
X143418324Y-94284800D01*
X143422000Y-94322122D01*
X143422000Y-94322132D01*
X143432997Y-94433785D01*
X143459430Y-94520924D01*
X143476454Y-94577046D01*
X143547026Y-94709076D01*
X143586871Y-94757626D01*
X143641999Y-94824801D01*
X143671002Y-94848603D01*
X144278600Y-95456202D01*
X144302399Y-95485201D01*
X144418124Y-95580174D01*
X144550153Y-95650746D01*
X144693414Y-95694203D01*
X144805067Y-95705200D01*
X144805075Y-95705200D01*
X144842400Y-95708876D01*
X144879725Y-95705200D01*
X146159089Y-95705200D01*
X146203026Y-95749137D01*
X146372544Y-95862405D01*
X146560902Y-95940426D01*
X146760861Y-95980200D01*
X146964739Y-95980200D01*
X147164698Y-95940426D01*
X147353056Y-95862405D01*
X147522574Y-95749137D01*
X147666737Y-95604974D01*
X147780005Y-95435456D01*
X147858026Y-95247098D01*
X147897800Y-95047139D01*
X147897800Y-94843261D01*
X147858026Y-94643302D01*
X147780005Y-94454944D01*
X147666737Y-94285426D01*
X147522574Y-94141263D01*
X147353056Y-94027995D01*
X147164698Y-93949974D01*
X146964739Y-93910200D01*
X146760861Y-93910200D01*
X146560902Y-93949974D01*
X146372544Y-94027995D01*
X146203026Y-94141263D01*
X146159089Y-94185200D01*
X145157202Y-94185200D01*
X145012789Y-94040787D01*
X145099205Y-93911456D01*
X145177226Y-93723098D01*
X145217000Y-93523139D01*
X145217000Y-93319261D01*
X145177226Y-93119302D01*
X145099205Y-92930944D01*
X144985937Y-92761426D01*
X144841774Y-92617263D01*
X144672256Y-92503995D01*
X144483898Y-92425974D01*
X144283939Y-92386200D01*
X144080061Y-92386200D01*
X143880102Y-92425974D01*
X143691744Y-92503995D01*
X143522226Y-92617263D01*
X143378063Y-92761426D01*
X143264795Y-92930944D01*
X143186774Y-93119302D01*
X143147000Y-93319261D01*
X100710000Y-93319261D01*
X100710000Y-90648061D01*
X141465000Y-90648061D01*
X141465000Y-90851939D01*
X141504774Y-91051898D01*
X141582795Y-91240256D01*
X141696063Y-91409774D01*
X141840226Y-91553937D01*
X142009744Y-91667205D01*
X142198102Y-91745226D01*
X142398061Y-91785000D01*
X142601939Y-91785000D01*
X142722673Y-91760985D01*
X142749999Y-91763676D01*
X142787322Y-91760000D01*
X146296289Y-91760000D01*
X146340226Y-91803937D01*
X146509744Y-91917205D01*
X146698102Y-91995226D01*
X146898061Y-92035000D01*
X147101939Y-92035000D01*
X147301898Y-91995226D01*
X147490256Y-91917205D01*
X147659774Y-91803937D01*
X147803937Y-91659774D01*
X147917205Y-91490256D01*
X147995226Y-91301898D01*
X148035000Y-91101939D01*
X148035000Y-90898061D01*
X147995226Y-90698102D01*
X147917205Y-90509744D01*
X147803937Y-90340226D01*
X147659774Y-90196063D01*
X147490256Y-90082795D01*
X147301898Y-90004774D01*
X147101939Y-89965000D01*
X146898061Y-89965000D01*
X146698102Y-90004774D01*
X146509744Y-90082795D01*
X146340226Y-90196063D01*
X146296289Y-90240000D01*
X143404013Y-90240000D01*
X143303937Y-90090226D01*
X143159774Y-89946063D01*
X142990256Y-89832795D01*
X142801898Y-89754774D01*
X142601939Y-89715000D01*
X142398061Y-89715000D01*
X142198102Y-89754774D01*
X142009744Y-89832795D01*
X141840226Y-89946063D01*
X141696063Y-90090226D01*
X141582795Y-90259744D01*
X141504774Y-90448102D01*
X141465000Y-90648061D01*
X100710000Y-90648061D01*
X100710000Y-84162561D01*
X143427500Y-84162561D01*
X143427500Y-84366439D01*
X143467274Y-84566398D01*
X143545295Y-84754756D01*
X143658563Y-84924274D01*
X143802726Y-85068437D01*
X143972244Y-85181705D01*
X144160602Y-85259726D01*
X144360561Y-85299500D01*
X144422698Y-85299500D01*
X145867205Y-86744008D01*
X145890999Y-86773001D01*
X145919992Y-86796795D01*
X145919996Y-86796799D01*
X145990685Y-86854811D01*
X146006724Y-86867974D01*
X146138753Y-86938546D01*
X146282014Y-86982003D01*
X146393667Y-86993000D01*
X146393676Y-86993000D01*
X146430999Y-86996676D01*
X146468322Y-86993000D01*
X163792678Y-86993000D01*
X163830000Y-86996676D01*
X163867322Y-86993000D01*
X163867333Y-86993000D01*
X163978986Y-86982003D01*
X164122247Y-86938546D01*
X164254276Y-86867974D01*
X164370001Y-86773001D01*
X164393804Y-86743997D01*
X165647802Y-85490000D01*
X165709939Y-85490000D01*
X165909898Y-85450226D01*
X166098256Y-85372205D01*
X166267774Y-85258937D01*
X166411937Y-85114774D01*
X166525205Y-84945256D01*
X166603226Y-84756898D01*
X166643000Y-84556939D01*
X166643000Y-84353061D01*
X166603226Y-84153102D01*
X166560166Y-84049147D01*
X167200746Y-84049147D01*
X167671800Y-84520202D01*
X167671800Y-84582339D01*
X167711574Y-84782298D01*
X167789595Y-84970656D01*
X167902863Y-85140174D01*
X168047026Y-85284337D01*
X168216544Y-85397605D01*
X168404902Y-85475626D01*
X168604861Y-85515400D01*
X168808739Y-85515400D01*
X169008698Y-85475626D01*
X169197056Y-85397605D01*
X169366574Y-85284337D01*
X169510737Y-85140174D01*
X169624005Y-84970656D01*
X169702026Y-84782298D01*
X169741800Y-84582339D01*
X169741800Y-84378461D01*
X169702026Y-84178502D01*
X169624005Y-83990144D01*
X169510737Y-83820626D01*
X169366574Y-83676463D01*
X169197056Y-83563195D01*
X169008698Y-83485174D01*
X168808739Y-83445400D01*
X168746602Y-83445400D01*
X168079351Y-82778150D01*
X168055548Y-82749146D01*
X167939823Y-82654173D01*
X167807794Y-82583601D01*
X167664533Y-82540144D01*
X167552880Y-82529147D01*
X167552869Y-82529147D01*
X167515547Y-82525471D01*
X167478225Y-82529147D01*
X150246211Y-82529147D01*
X150202274Y-82485210D01*
X150032756Y-82371942D01*
X149844398Y-82293921D01*
X149644439Y-82254147D01*
X149440561Y-82254147D01*
X149240602Y-82293921D01*
X149052244Y-82371942D01*
X148882726Y-82485210D01*
X148738563Y-82629373D01*
X148625295Y-82798891D01*
X148547274Y-82987249D01*
X148507500Y-83187208D01*
X148507500Y-83391086D01*
X148547274Y-83591045D01*
X148625295Y-83779403D01*
X148738563Y-83948921D01*
X148882726Y-84093084D01*
X149052244Y-84206352D01*
X149240602Y-84284373D01*
X149440561Y-84324147D01*
X149644439Y-84324147D01*
X149844398Y-84284373D01*
X150032756Y-84206352D01*
X150202274Y-84093084D01*
X150246211Y-84049147D01*
X164655834Y-84049147D01*
X164612774Y-84153102D01*
X164573000Y-84353061D01*
X164573000Y-84415198D01*
X163515199Y-85473000D01*
X146745803Y-85473000D01*
X145497500Y-84224698D01*
X145497500Y-84162561D01*
X145457726Y-83962602D01*
X145379705Y-83774244D01*
X145266437Y-83604726D01*
X145122274Y-83460563D01*
X144952756Y-83347295D01*
X144764398Y-83269274D01*
X144564439Y-83229500D01*
X144360561Y-83229500D01*
X144160602Y-83269274D01*
X143972244Y-83347295D01*
X143802726Y-83460563D01*
X143658563Y-83604726D01*
X143545295Y-83774244D01*
X143467274Y-83962602D01*
X143427500Y-84162561D01*
X100710000Y-84162561D01*
X100710000Y-72545098D01*
X101770315Y-72545098D01*
X101840583Y-73171555D01*
X102031193Y-73772432D01*
X102334883Y-74324843D01*
X102740087Y-74807747D01*
X103231371Y-75202749D01*
X103790021Y-75494804D01*
X104394758Y-75672788D01*
X105022549Y-75729921D01*
X105649482Y-75664028D01*
X106251675Y-75477618D01*
X106806193Y-75177791D01*
X107291913Y-74775968D01*
X107690336Y-74287455D01*
X107986284Y-73730857D01*
X108168485Y-73127377D01*
X108230000Y-72500000D01*
X108228741Y-72409813D01*
X108149732Y-71784398D01*
X107950752Y-71186241D01*
X107639378Y-70638124D01*
X107227471Y-70160925D01*
X106730721Y-69772821D01*
X106168047Y-69488594D01*
X105560884Y-69319071D01*
X104932356Y-69270708D01*
X104306405Y-69345349D01*
X103706873Y-69540148D01*
X103156595Y-69847688D01*
X102676532Y-70256253D01*
X102284970Y-70750282D01*
X101996822Y-71310958D01*
X101823064Y-71916923D01*
X101770315Y-72545098D01*
X100710000Y-72545098D01*
X100710000Y-70534721D01*
X100756953Y-70055866D01*
X100885938Y-69628645D01*
X101095446Y-69234616D01*
X101377499Y-68888786D01*
X101721351Y-68604327D01*
X102113910Y-68392071D01*
X102540213Y-68260108D01*
X103016964Y-68210000D01*
X192232094Y-68210000D01*
X192292054Y-68252582D01*
M02*
