G04 #@! TF.GenerationSoftware,KiCad,Pcbnew,(5.1.2-1)-1*
G04 #@! TF.CreationDate,2019-09-23T09:48:08+02:00*
G04 #@! TF.ProjectId,briefkastensensor,62726965-666b-4617-9374-656e73656e73,rev?*
G04 #@! TF.SameCoordinates,Original*
G04 #@! TF.FileFunction,Soldermask,Top*
G04 #@! TF.FilePolarity,Negative*
%FSLAX46Y46*%
G04 Gerber Fmt 4.6, Leading zero omitted, Abs format (unit mm)*
G04 Created by KiCad (PCBNEW (5.1.2-1)-1) date 2019-09-23 09:48:08*
%MOMM*%
%LPD*%
G04 APERTURE LIST*
%ADD10C,0.100000*%
G04 APERTURE END LIST*
D10*
G36*
X141631000Y-103126000D02*
G01*
X140529000Y-103126000D01*
X140529000Y-99874000D01*
X141631000Y-99874000D01*
X141631000Y-103126000D01*
X141631000Y-103126000D01*
G37*
G36*
X139091000Y-103126000D02*
G01*
X137989000Y-103126000D01*
X137989000Y-99874000D01*
X139091000Y-99874000D01*
X139091000Y-103126000D01*
X139091000Y-103126000D01*
G37*
G36*
X136551000Y-103126000D02*
G01*
X135449000Y-103126000D01*
X135449000Y-99874000D01*
X136551000Y-99874000D01*
X136551000Y-103126000D01*
X136551000Y-103126000D01*
G37*
G36*
X141631000Y-98076000D02*
G01*
X140529000Y-98076000D01*
X140529000Y-94824000D01*
X141631000Y-94824000D01*
X141631000Y-98076000D01*
X141631000Y-98076000D01*
G37*
G36*
X139091000Y-98076000D02*
G01*
X137989000Y-98076000D01*
X137989000Y-94824000D01*
X139091000Y-94824000D01*
X139091000Y-98076000D01*
X139091000Y-98076000D01*
G37*
G36*
X136551000Y-98076000D02*
G01*
X135449000Y-98076000D01*
X135449000Y-94824000D01*
X136551000Y-94824000D01*
X136551000Y-98076000D01*
X136551000Y-98076000D01*
G37*
G36*
X154918604Y-94078347D02*
G01*
X154955144Y-94089432D01*
X154988821Y-94107433D01*
X155018341Y-94131659D01*
X155042567Y-94161179D01*
X155060568Y-94194856D01*
X155071653Y-94231396D01*
X155076000Y-94275538D01*
X155076000Y-95724462D01*
X155071653Y-95768604D01*
X155060568Y-95805144D01*
X155042567Y-95838821D01*
X155018341Y-95868341D01*
X154988821Y-95892567D01*
X154955144Y-95910568D01*
X154918604Y-95921653D01*
X154874462Y-95926000D01*
X153925538Y-95926000D01*
X153881396Y-95921653D01*
X153844856Y-95910568D01*
X153811179Y-95892567D01*
X153781659Y-95868341D01*
X153757433Y-95838821D01*
X153739432Y-95805144D01*
X153728347Y-95768604D01*
X153724000Y-95724462D01*
X153724000Y-94275538D01*
X153728347Y-94231396D01*
X153739432Y-94194856D01*
X153757433Y-94161179D01*
X153781659Y-94131659D01*
X153811179Y-94107433D01*
X153844856Y-94089432D01*
X153881396Y-94078347D01*
X153925538Y-94074000D01*
X154874462Y-94074000D01*
X154918604Y-94078347D01*
X154918604Y-94078347D01*
G37*
G36*
X152118604Y-94078347D02*
G01*
X152155144Y-94089432D01*
X152188821Y-94107433D01*
X152218341Y-94131659D01*
X152242567Y-94161179D01*
X152260568Y-94194856D01*
X152271653Y-94231396D01*
X152276000Y-94275538D01*
X152276000Y-95724462D01*
X152271653Y-95768604D01*
X152260568Y-95805144D01*
X152242567Y-95838821D01*
X152218341Y-95868341D01*
X152188821Y-95892567D01*
X152155144Y-95910568D01*
X152118604Y-95921653D01*
X152074462Y-95926000D01*
X151125538Y-95926000D01*
X151081396Y-95921653D01*
X151044856Y-95910568D01*
X151011179Y-95892567D01*
X150981659Y-95868341D01*
X150957433Y-95838821D01*
X150939432Y-95805144D01*
X150928347Y-95768604D01*
X150924000Y-95724462D01*
X150924000Y-94275538D01*
X150928347Y-94231396D01*
X150939432Y-94194856D01*
X150957433Y-94161179D01*
X150981659Y-94131659D01*
X151011179Y-94107433D01*
X151044856Y-94089432D01*
X151081396Y-94078347D01*
X151125538Y-94074000D01*
X152074462Y-94074000D01*
X152118604Y-94078347D01*
X152118604Y-94078347D01*
G37*
G36*
X191245499Y-90917945D02*
G01*
X191282995Y-90929320D01*
X191317554Y-90947792D01*
X191347847Y-90972653D01*
X191372708Y-91002946D01*
X191391180Y-91037505D01*
X191402555Y-91075001D01*
X191407000Y-91120138D01*
X191407000Y-91858862D01*
X191402555Y-91903999D01*
X191391180Y-91941495D01*
X191372708Y-91976054D01*
X191347847Y-92006347D01*
X191317554Y-92031208D01*
X191282995Y-92049680D01*
X191245499Y-92061055D01*
X191200362Y-92065500D01*
X190561638Y-92065500D01*
X190516501Y-92061055D01*
X190479005Y-92049680D01*
X190444446Y-92031208D01*
X190414153Y-92006347D01*
X190389292Y-91976054D01*
X190370820Y-91941495D01*
X190359445Y-91903999D01*
X190355000Y-91858862D01*
X190355000Y-91120138D01*
X190359445Y-91075001D01*
X190370820Y-91037505D01*
X190389292Y-91002946D01*
X190414153Y-90972653D01*
X190444446Y-90947792D01*
X190479005Y-90929320D01*
X190516501Y-90917945D01*
X190561638Y-90913500D01*
X191200362Y-90913500D01*
X191245499Y-90917945D01*
X191245499Y-90917945D01*
G37*
G36*
X161951000Y-92051000D02*
G01*
X161249000Y-92051000D01*
X161249000Y-88949000D01*
X161951000Y-88949000D01*
X161951000Y-92051000D01*
X161951000Y-92051000D01*
G37*
G36*
X160751000Y-92051000D02*
G01*
X160049000Y-92051000D01*
X160049000Y-88949000D01*
X160751000Y-88949000D01*
X160751000Y-92051000D01*
X160751000Y-92051000D01*
G37*
G36*
X191245499Y-89167945D02*
G01*
X191282995Y-89179320D01*
X191317554Y-89197792D01*
X191347847Y-89222653D01*
X191372708Y-89252946D01*
X191391180Y-89287505D01*
X191402555Y-89325001D01*
X191407000Y-89370138D01*
X191407000Y-90108862D01*
X191402555Y-90153999D01*
X191391180Y-90191495D01*
X191372708Y-90226054D01*
X191347847Y-90256347D01*
X191317554Y-90281208D01*
X191282995Y-90299680D01*
X191245499Y-90311055D01*
X191200362Y-90315500D01*
X190561638Y-90315500D01*
X190516501Y-90311055D01*
X190479005Y-90299680D01*
X190444446Y-90281208D01*
X190414153Y-90256347D01*
X190389292Y-90226054D01*
X190370820Y-90191495D01*
X190359445Y-90153999D01*
X190355000Y-90108862D01*
X190355000Y-89370138D01*
X190359445Y-89325001D01*
X190370820Y-89287505D01*
X190389292Y-89252946D01*
X190414153Y-89222653D01*
X190444446Y-89197792D01*
X190479005Y-89179320D01*
X190516501Y-89167945D01*
X190561638Y-89163500D01*
X191200362Y-89163500D01*
X191245499Y-89167945D01*
X191245499Y-89167945D01*
G37*
G36*
X148409928Y-88961764D02*
G01*
X148431009Y-88968160D01*
X148450445Y-88978548D01*
X148467476Y-88992524D01*
X148481452Y-89009555D01*
X148491840Y-89028991D01*
X148498236Y-89050072D01*
X148501000Y-89078140D01*
X148501000Y-89541860D01*
X148498236Y-89569928D01*
X148491840Y-89591009D01*
X148481452Y-89610445D01*
X148467476Y-89627476D01*
X148450445Y-89641452D01*
X148431009Y-89651840D01*
X148409928Y-89658236D01*
X148381860Y-89661000D01*
X146568140Y-89661000D01*
X146540072Y-89658236D01*
X146518991Y-89651840D01*
X146499555Y-89641452D01*
X146482524Y-89627476D01*
X146468548Y-89610445D01*
X146458160Y-89591009D01*
X146451764Y-89569928D01*
X146449000Y-89541860D01*
X146449000Y-89078140D01*
X146451764Y-89050072D01*
X146458160Y-89028991D01*
X146468548Y-89009555D01*
X146482524Y-88992524D01*
X146499555Y-88978548D01*
X146518991Y-88968160D01*
X146540072Y-88961764D01*
X146568140Y-88959000D01*
X148381860Y-88959000D01*
X148409928Y-88961764D01*
X148409928Y-88961764D01*
G37*
G36*
X143459928Y-88961764D02*
G01*
X143481009Y-88968160D01*
X143500445Y-88978548D01*
X143517476Y-88992524D01*
X143531452Y-89009555D01*
X143541840Y-89028991D01*
X143548236Y-89050072D01*
X143551000Y-89078140D01*
X143551000Y-89541860D01*
X143548236Y-89569928D01*
X143541840Y-89591009D01*
X143531452Y-89610445D01*
X143517476Y-89627476D01*
X143500445Y-89641452D01*
X143481009Y-89651840D01*
X143459928Y-89658236D01*
X143431860Y-89661000D01*
X141618140Y-89661000D01*
X141590072Y-89658236D01*
X141568991Y-89651840D01*
X141549555Y-89641452D01*
X141532524Y-89627476D01*
X141518548Y-89610445D01*
X141508160Y-89591009D01*
X141501764Y-89569928D01*
X141499000Y-89541860D01*
X141499000Y-89078140D01*
X141501764Y-89050072D01*
X141508160Y-89028991D01*
X141518548Y-89009555D01*
X141532524Y-88992524D01*
X141549555Y-88978548D01*
X141568991Y-88968160D01*
X141590072Y-88961764D01*
X141618140Y-88959000D01*
X143431860Y-88959000D01*
X143459928Y-88961764D01*
X143459928Y-88961764D01*
G37*
G36*
X106641000Y-89306000D02*
G01*
X103999000Y-89306000D01*
X103999000Y-85694000D01*
X106641000Y-85694000D01*
X106641000Y-89306000D01*
X106641000Y-89306000D01*
G37*
G36*
X136001000Y-89306000D02*
G01*
X133359000Y-89306000D01*
X133359000Y-85694000D01*
X136001000Y-85694000D01*
X136001000Y-89306000D01*
X136001000Y-89306000D01*
G37*
G36*
X188051000Y-89051000D02*
G01*
X185949000Y-89051000D01*
X185949000Y-87949000D01*
X188051000Y-87949000D01*
X188051000Y-89051000D01*
X188051000Y-89051000D01*
G37*
G36*
X172051000Y-89051000D02*
G01*
X169949000Y-89051000D01*
X169949000Y-87949000D01*
X172051000Y-87949000D01*
X172051000Y-89051000D01*
X172051000Y-89051000D01*
G37*
G36*
X148409928Y-87691764D02*
G01*
X148431009Y-87698160D01*
X148450445Y-87708548D01*
X148467476Y-87722524D01*
X148481452Y-87739555D01*
X148491840Y-87758991D01*
X148498236Y-87780072D01*
X148501000Y-87808140D01*
X148501000Y-88271860D01*
X148498236Y-88299928D01*
X148491840Y-88321009D01*
X148481452Y-88340445D01*
X148467476Y-88357476D01*
X148450445Y-88371452D01*
X148431009Y-88381840D01*
X148409928Y-88388236D01*
X148381860Y-88391000D01*
X146568140Y-88391000D01*
X146540072Y-88388236D01*
X146518991Y-88381840D01*
X146499555Y-88371452D01*
X146482524Y-88357476D01*
X146468548Y-88340445D01*
X146458160Y-88321009D01*
X146451764Y-88299928D01*
X146449000Y-88271860D01*
X146449000Y-87808140D01*
X146451764Y-87780072D01*
X146458160Y-87758991D01*
X146468548Y-87739555D01*
X146482524Y-87722524D01*
X146499555Y-87708548D01*
X146518991Y-87698160D01*
X146540072Y-87691764D01*
X146568140Y-87689000D01*
X148381860Y-87689000D01*
X148409928Y-87691764D01*
X148409928Y-87691764D01*
G37*
G36*
X143459928Y-87691764D02*
G01*
X143481009Y-87698160D01*
X143500445Y-87708548D01*
X143517476Y-87722524D01*
X143531452Y-87739555D01*
X143541840Y-87758991D01*
X143548236Y-87780072D01*
X143551000Y-87808140D01*
X143551000Y-88271860D01*
X143548236Y-88299928D01*
X143541840Y-88321009D01*
X143531452Y-88340445D01*
X143517476Y-88357476D01*
X143500445Y-88371452D01*
X143481009Y-88381840D01*
X143459928Y-88388236D01*
X143431860Y-88391000D01*
X141618140Y-88391000D01*
X141590072Y-88388236D01*
X141568991Y-88381840D01*
X141549555Y-88371452D01*
X141532524Y-88357476D01*
X141518548Y-88340445D01*
X141508160Y-88321009D01*
X141501764Y-88299928D01*
X141499000Y-88271860D01*
X141499000Y-87808140D01*
X141501764Y-87780072D01*
X141508160Y-87758991D01*
X141518548Y-87739555D01*
X141532524Y-87722524D01*
X141549555Y-87708548D01*
X141568991Y-87698160D01*
X141590072Y-87691764D01*
X141618140Y-87689000D01*
X143431860Y-87689000D01*
X143459928Y-87691764D01*
X143459928Y-87691764D01*
G37*
G36*
X192798791Y-86971685D02*
G01*
X192832769Y-86981993D01*
X192864090Y-86998734D01*
X192891539Y-87021261D01*
X192914066Y-87048710D01*
X192930807Y-87080031D01*
X192941115Y-87114009D01*
X192945200Y-87155490D01*
X192945200Y-87831710D01*
X192941115Y-87873191D01*
X192930807Y-87907169D01*
X192914066Y-87938490D01*
X192891539Y-87965939D01*
X192864090Y-87988466D01*
X192832769Y-88005207D01*
X192798791Y-88015515D01*
X192757310Y-88019600D01*
X192156090Y-88019600D01*
X192114609Y-88015515D01*
X192080631Y-88005207D01*
X192049310Y-87988466D01*
X192021861Y-87965939D01*
X191999334Y-87938490D01*
X191982593Y-87907169D01*
X191972285Y-87873191D01*
X191968200Y-87831710D01*
X191968200Y-87155490D01*
X191972285Y-87114009D01*
X191982593Y-87080031D01*
X191999334Y-87048710D01*
X192021861Y-87021261D01*
X192049310Y-86998734D01*
X192080631Y-86981993D01*
X192114609Y-86971685D01*
X192156090Y-86967600D01*
X192757310Y-86967600D01*
X192798791Y-86971685D01*
X192798791Y-86971685D01*
G37*
G36*
X191223791Y-86971685D02*
G01*
X191257769Y-86981993D01*
X191289090Y-86998734D01*
X191316539Y-87021261D01*
X191339066Y-87048710D01*
X191355807Y-87080031D01*
X191366115Y-87114009D01*
X191370200Y-87155490D01*
X191370200Y-87831710D01*
X191366115Y-87873191D01*
X191355807Y-87907169D01*
X191339066Y-87938490D01*
X191316539Y-87965939D01*
X191289090Y-87988466D01*
X191257769Y-88005207D01*
X191223791Y-88015515D01*
X191182310Y-88019600D01*
X190581090Y-88019600D01*
X190539609Y-88015515D01*
X190505631Y-88005207D01*
X190474310Y-87988466D01*
X190446861Y-87965939D01*
X190424334Y-87938490D01*
X190407593Y-87907169D01*
X190397285Y-87873191D01*
X190393200Y-87831710D01*
X190393200Y-87155490D01*
X190397285Y-87114009D01*
X190407593Y-87080031D01*
X190424334Y-87048710D01*
X190446861Y-87021261D01*
X190474310Y-86998734D01*
X190505631Y-86981993D01*
X190539609Y-86971685D01*
X190581090Y-86967600D01*
X191182310Y-86967600D01*
X191223791Y-86971685D01*
X191223791Y-86971685D01*
G37*
G36*
X193551000Y-87851000D02*
G01*
X193249000Y-87851000D01*
X193249000Y-87149000D01*
X193551000Y-87149000D01*
X193551000Y-87851000D01*
X193551000Y-87851000D01*
G37*
G36*
X143459928Y-86421764D02*
G01*
X143481009Y-86428160D01*
X143500445Y-86438548D01*
X143517476Y-86452524D01*
X143531452Y-86469555D01*
X143541840Y-86488991D01*
X143548236Y-86510072D01*
X143551000Y-86538140D01*
X143551000Y-87001860D01*
X143548236Y-87029928D01*
X143541840Y-87051009D01*
X143531452Y-87070445D01*
X143517476Y-87087476D01*
X143500445Y-87101452D01*
X143481009Y-87111840D01*
X143459928Y-87118236D01*
X143431860Y-87121000D01*
X141618140Y-87121000D01*
X141590072Y-87118236D01*
X141568991Y-87111840D01*
X141549555Y-87101452D01*
X141532524Y-87087476D01*
X141518548Y-87070445D01*
X141508160Y-87051009D01*
X141501764Y-87029928D01*
X141499000Y-87001860D01*
X141499000Y-86538140D01*
X141501764Y-86510072D01*
X141508160Y-86488991D01*
X141518548Y-86469555D01*
X141532524Y-86452524D01*
X141549555Y-86438548D01*
X141568991Y-86428160D01*
X141590072Y-86421764D01*
X141618140Y-86419000D01*
X143431860Y-86419000D01*
X143459928Y-86421764D01*
X143459928Y-86421764D01*
G37*
G36*
X148409928Y-86421764D02*
G01*
X148431009Y-86428160D01*
X148450445Y-86438548D01*
X148467476Y-86452524D01*
X148481452Y-86469555D01*
X148491840Y-86488991D01*
X148498236Y-86510072D01*
X148501000Y-86538140D01*
X148501000Y-87001860D01*
X148498236Y-87029928D01*
X148491840Y-87051009D01*
X148481452Y-87070445D01*
X148467476Y-87087476D01*
X148450445Y-87101452D01*
X148431009Y-87111840D01*
X148409928Y-87118236D01*
X148381860Y-87121000D01*
X146568140Y-87121000D01*
X146540072Y-87118236D01*
X146518991Y-87111840D01*
X146499555Y-87101452D01*
X146482524Y-87087476D01*
X146468548Y-87070445D01*
X146458160Y-87051009D01*
X146451764Y-87029928D01*
X146449000Y-87001860D01*
X146449000Y-86538140D01*
X146451764Y-86510072D01*
X146458160Y-86488991D01*
X146468548Y-86469555D01*
X146482524Y-86452524D01*
X146499555Y-86438548D01*
X146518991Y-86428160D01*
X146540072Y-86421764D01*
X146568140Y-86419000D01*
X148381860Y-86419000D01*
X148409928Y-86421764D01*
X148409928Y-86421764D01*
G37*
G36*
X172051000Y-87051000D02*
G01*
X169949000Y-87051000D01*
X169949000Y-85949000D01*
X172051000Y-85949000D01*
X172051000Y-87051000D01*
X172051000Y-87051000D01*
G37*
G36*
X188051000Y-87051000D02*
G01*
X185949000Y-87051000D01*
X185949000Y-85949000D01*
X188051000Y-85949000D01*
X188051000Y-87051000D01*
X188051000Y-87051000D01*
G37*
G36*
X161951000Y-86051000D02*
G01*
X161249000Y-86051000D01*
X161249000Y-82949000D01*
X161951000Y-82949000D01*
X161951000Y-86051000D01*
X161951000Y-86051000D01*
G37*
G36*
X160751000Y-86051000D02*
G01*
X160049000Y-86051000D01*
X160049000Y-82949000D01*
X160751000Y-82949000D01*
X160751000Y-86051000D01*
X160751000Y-86051000D01*
G37*
G36*
X148409928Y-85151764D02*
G01*
X148431009Y-85158160D01*
X148450445Y-85168548D01*
X148467476Y-85182524D01*
X148481452Y-85199555D01*
X148491840Y-85218991D01*
X148498236Y-85240072D01*
X148501000Y-85268140D01*
X148501000Y-85731860D01*
X148498236Y-85759928D01*
X148491840Y-85781009D01*
X148481452Y-85800445D01*
X148467476Y-85817476D01*
X148450445Y-85831452D01*
X148431009Y-85841840D01*
X148409928Y-85848236D01*
X148381860Y-85851000D01*
X146568140Y-85851000D01*
X146540072Y-85848236D01*
X146518991Y-85841840D01*
X146499555Y-85831452D01*
X146482524Y-85817476D01*
X146468548Y-85800445D01*
X146458160Y-85781009D01*
X146451764Y-85759928D01*
X146449000Y-85731860D01*
X146449000Y-85268140D01*
X146451764Y-85240072D01*
X146458160Y-85218991D01*
X146468548Y-85199555D01*
X146482524Y-85182524D01*
X146499555Y-85168548D01*
X146518991Y-85158160D01*
X146540072Y-85151764D01*
X146568140Y-85149000D01*
X148381860Y-85149000D01*
X148409928Y-85151764D01*
X148409928Y-85151764D01*
G37*
G36*
X143459928Y-85151764D02*
G01*
X143481009Y-85158160D01*
X143500445Y-85168548D01*
X143517476Y-85182524D01*
X143531452Y-85199555D01*
X143541840Y-85218991D01*
X143548236Y-85240072D01*
X143551000Y-85268140D01*
X143551000Y-85731860D01*
X143548236Y-85759928D01*
X143541840Y-85781009D01*
X143531452Y-85800445D01*
X143517476Y-85817476D01*
X143500445Y-85831452D01*
X143481009Y-85841840D01*
X143459928Y-85848236D01*
X143431860Y-85851000D01*
X141618140Y-85851000D01*
X141590072Y-85848236D01*
X141568991Y-85841840D01*
X141549555Y-85831452D01*
X141532524Y-85817476D01*
X141518548Y-85800445D01*
X141508160Y-85781009D01*
X141501764Y-85759928D01*
X141499000Y-85731860D01*
X141499000Y-85268140D01*
X141501764Y-85240072D01*
X141508160Y-85218991D01*
X141518548Y-85199555D01*
X141532524Y-85182524D01*
X141549555Y-85168548D01*
X141568991Y-85158160D01*
X141590072Y-85151764D01*
X141618140Y-85149000D01*
X143431860Y-85149000D01*
X143459928Y-85151764D01*
X143459928Y-85151764D01*
G37*
G36*
X188051000Y-85051000D02*
G01*
X185949000Y-85051000D01*
X185949000Y-83949000D01*
X188051000Y-83949000D01*
X188051000Y-85051000D01*
X188051000Y-85051000D01*
G37*
G36*
X172051000Y-85051000D02*
G01*
X169949000Y-85051000D01*
X169949000Y-83949000D01*
X172051000Y-83949000D01*
X172051000Y-85051000D01*
X172051000Y-85051000D01*
G37*
G36*
X143459928Y-83881764D02*
G01*
X143481009Y-83888160D01*
X143500445Y-83898548D01*
X143517476Y-83912524D01*
X143531452Y-83929555D01*
X143541840Y-83948991D01*
X143548236Y-83970072D01*
X143551000Y-83998140D01*
X143551000Y-84461860D01*
X143548236Y-84489928D01*
X143541840Y-84511009D01*
X143531452Y-84530445D01*
X143517476Y-84547476D01*
X143500445Y-84561452D01*
X143481009Y-84571840D01*
X143459928Y-84578236D01*
X143431860Y-84581000D01*
X141618140Y-84581000D01*
X141590072Y-84578236D01*
X141568991Y-84571840D01*
X141549555Y-84561452D01*
X141532524Y-84547476D01*
X141518548Y-84530445D01*
X141508160Y-84511009D01*
X141501764Y-84489928D01*
X141499000Y-84461860D01*
X141499000Y-83998140D01*
X141501764Y-83970072D01*
X141508160Y-83948991D01*
X141518548Y-83929555D01*
X141532524Y-83912524D01*
X141549555Y-83898548D01*
X141568991Y-83888160D01*
X141590072Y-83881764D01*
X141618140Y-83879000D01*
X143431860Y-83879000D01*
X143459928Y-83881764D01*
X143459928Y-83881764D01*
G37*
G36*
X148409928Y-83881764D02*
G01*
X148431009Y-83888160D01*
X148450445Y-83898548D01*
X148467476Y-83912524D01*
X148481452Y-83929555D01*
X148491840Y-83948991D01*
X148498236Y-83970072D01*
X148501000Y-83998140D01*
X148501000Y-84461860D01*
X148498236Y-84489928D01*
X148491840Y-84511009D01*
X148481452Y-84530445D01*
X148467476Y-84547476D01*
X148450445Y-84561452D01*
X148431009Y-84571840D01*
X148409928Y-84578236D01*
X148381860Y-84581000D01*
X146568140Y-84581000D01*
X146540072Y-84578236D01*
X146518991Y-84571840D01*
X146499555Y-84561452D01*
X146482524Y-84547476D01*
X146468548Y-84530445D01*
X146458160Y-84511009D01*
X146451764Y-84489928D01*
X146449000Y-84461860D01*
X146449000Y-83998140D01*
X146451764Y-83970072D01*
X146458160Y-83948991D01*
X146468548Y-83929555D01*
X146482524Y-83912524D01*
X146499555Y-83898548D01*
X146518991Y-83888160D01*
X146540072Y-83881764D01*
X146568140Y-83879000D01*
X148381860Y-83879000D01*
X148409928Y-83881764D01*
X148409928Y-83881764D01*
G37*
G36*
X139605004Y-82465547D02*
G01*
X139641544Y-82476632D01*
X139675221Y-82494633D01*
X139704741Y-82518859D01*
X139728967Y-82548379D01*
X139746968Y-82582056D01*
X139758053Y-82618596D01*
X139762400Y-82662738D01*
X139762400Y-83611662D01*
X139758053Y-83655804D01*
X139746968Y-83692344D01*
X139728967Y-83726021D01*
X139704741Y-83755541D01*
X139675221Y-83779767D01*
X139641544Y-83797768D01*
X139605004Y-83808853D01*
X139560862Y-83813200D01*
X138111938Y-83813200D01*
X138067796Y-83808853D01*
X138031256Y-83797768D01*
X137997579Y-83779767D01*
X137968059Y-83755541D01*
X137943833Y-83726021D01*
X137925832Y-83692344D01*
X137914747Y-83655804D01*
X137910400Y-83611662D01*
X137910400Y-82662738D01*
X137914747Y-82618596D01*
X137925832Y-82582056D01*
X137943833Y-82548379D01*
X137968059Y-82518859D01*
X137997579Y-82494633D01*
X138031256Y-82476632D01*
X138067796Y-82465547D01*
X138111938Y-82461200D01*
X139560862Y-82461200D01*
X139605004Y-82465547D01*
X139605004Y-82465547D01*
G37*
G36*
X143459928Y-82611764D02*
G01*
X143481009Y-82618160D01*
X143500445Y-82628548D01*
X143517476Y-82642524D01*
X143531452Y-82659555D01*
X143541840Y-82678991D01*
X143548236Y-82700072D01*
X143551000Y-82728140D01*
X143551000Y-83191860D01*
X143548236Y-83219928D01*
X143541840Y-83241009D01*
X143531452Y-83260445D01*
X143517476Y-83277476D01*
X143500445Y-83291452D01*
X143481009Y-83301840D01*
X143459928Y-83308236D01*
X143431860Y-83311000D01*
X141618140Y-83311000D01*
X141590072Y-83308236D01*
X141568991Y-83301840D01*
X141549555Y-83291452D01*
X141532524Y-83277476D01*
X141518548Y-83260445D01*
X141508160Y-83241009D01*
X141501764Y-83219928D01*
X141499000Y-83191860D01*
X141499000Y-82728140D01*
X141501764Y-82700072D01*
X141508160Y-82678991D01*
X141518548Y-82659555D01*
X141532524Y-82642524D01*
X141549555Y-82628548D01*
X141568991Y-82618160D01*
X141590072Y-82611764D01*
X141618140Y-82609000D01*
X143431860Y-82609000D01*
X143459928Y-82611764D01*
X143459928Y-82611764D01*
G37*
G36*
X148409928Y-82611764D02*
G01*
X148431009Y-82618160D01*
X148450445Y-82628548D01*
X148467476Y-82642524D01*
X148481452Y-82659555D01*
X148491840Y-82678991D01*
X148498236Y-82700072D01*
X148501000Y-82728140D01*
X148501000Y-83191860D01*
X148498236Y-83219928D01*
X148491840Y-83241009D01*
X148481452Y-83260445D01*
X148467476Y-83277476D01*
X148450445Y-83291452D01*
X148431009Y-83301840D01*
X148409928Y-83308236D01*
X148381860Y-83311000D01*
X146568140Y-83311000D01*
X146540072Y-83308236D01*
X146518991Y-83301840D01*
X146499555Y-83291452D01*
X146482524Y-83277476D01*
X146468548Y-83260445D01*
X146458160Y-83241009D01*
X146451764Y-83219928D01*
X146449000Y-83191860D01*
X146449000Y-82728140D01*
X146451764Y-82700072D01*
X146458160Y-82678991D01*
X146468548Y-82659555D01*
X146482524Y-82642524D01*
X146499555Y-82628548D01*
X146518991Y-82618160D01*
X146540072Y-82611764D01*
X146568140Y-82609000D01*
X148381860Y-82609000D01*
X148409928Y-82611764D01*
X148409928Y-82611764D01*
G37*
G36*
X188051000Y-83051000D02*
G01*
X185949000Y-83051000D01*
X185949000Y-81949000D01*
X188051000Y-81949000D01*
X188051000Y-83051000D01*
X188051000Y-83051000D01*
G37*
G36*
X172051000Y-83051000D02*
G01*
X169949000Y-83051000D01*
X169949000Y-81949000D01*
X172051000Y-81949000D01*
X172051000Y-83051000D01*
X172051000Y-83051000D01*
G37*
G36*
X148409928Y-81341764D02*
G01*
X148431009Y-81348160D01*
X148450445Y-81358548D01*
X148467476Y-81372524D01*
X148481452Y-81389555D01*
X148491840Y-81408991D01*
X148498236Y-81430072D01*
X148501000Y-81458140D01*
X148501000Y-81921860D01*
X148498236Y-81949928D01*
X148491840Y-81971009D01*
X148481452Y-81990445D01*
X148467476Y-82007476D01*
X148450445Y-82021452D01*
X148431009Y-82031840D01*
X148409928Y-82038236D01*
X148381860Y-82041000D01*
X146568140Y-82041000D01*
X146540072Y-82038236D01*
X146518991Y-82031840D01*
X146499555Y-82021452D01*
X146482524Y-82007476D01*
X146468548Y-81990445D01*
X146458160Y-81971009D01*
X146451764Y-81949928D01*
X146449000Y-81921860D01*
X146449000Y-81458140D01*
X146451764Y-81430072D01*
X146458160Y-81408991D01*
X146468548Y-81389555D01*
X146482524Y-81372524D01*
X146499555Y-81358548D01*
X146518991Y-81348160D01*
X146540072Y-81341764D01*
X146568140Y-81339000D01*
X148381860Y-81339000D01*
X148409928Y-81341764D01*
X148409928Y-81341764D01*
G37*
G36*
X143459928Y-81341764D02*
G01*
X143481009Y-81348160D01*
X143500445Y-81358548D01*
X143517476Y-81372524D01*
X143531452Y-81389555D01*
X143541840Y-81408991D01*
X143548236Y-81430072D01*
X143551000Y-81458140D01*
X143551000Y-81921860D01*
X143548236Y-81949928D01*
X143541840Y-81971009D01*
X143531452Y-81990445D01*
X143517476Y-82007476D01*
X143500445Y-82021452D01*
X143481009Y-82031840D01*
X143459928Y-82038236D01*
X143431860Y-82041000D01*
X141618140Y-82041000D01*
X141590072Y-82038236D01*
X141568991Y-82031840D01*
X141549555Y-82021452D01*
X141532524Y-82007476D01*
X141518548Y-81990445D01*
X141508160Y-81971009D01*
X141501764Y-81949928D01*
X141499000Y-81921860D01*
X141499000Y-81458140D01*
X141501764Y-81430072D01*
X141508160Y-81408991D01*
X141518548Y-81389555D01*
X141532524Y-81372524D01*
X141549555Y-81358548D01*
X141568991Y-81348160D01*
X141590072Y-81341764D01*
X141618140Y-81339000D01*
X143431860Y-81339000D01*
X143459928Y-81341764D01*
X143459928Y-81341764D01*
G37*
G36*
X172051000Y-81051000D02*
G01*
X169949000Y-81051000D01*
X169949000Y-79949000D01*
X172051000Y-79949000D01*
X172051000Y-81051000D01*
X172051000Y-81051000D01*
G37*
G36*
X188051000Y-81051000D02*
G01*
X185949000Y-81051000D01*
X185949000Y-79949000D01*
X188051000Y-79949000D01*
X188051000Y-81051000D01*
X188051000Y-81051000D01*
G37*
G36*
X139605004Y-79665547D02*
G01*
X139641544Y-79676632D01*
X139675221Y-79694633D01*
X139704741Y-79718859D01*
X139728967Y-79748379D01*
X139746968Y-79782056D01*
X139758053Y-79818596D01*
X139762400Y-79862738D01*
X139762400Y-80811662D01*
X139758053Y-80855804D01*
X139746968Y-80892344D01*
X139728967Y-80926021D01*
X139704741Y-80955541D01*
X139675221Y-80979767D01*
X139641544Y-80997768D01*
X139605004Y-81008853D01*
X139560862Y-81013200D01*
X138111938Y-81013200D01*
X138067796Y-81008853D01*
X138031256Y-80997768D01*
X137997579Y-80979767D01*
X137968059Y-80955541D01*
X137943833Y-80926021D01*
X137925832Y-80892344D01*
X137914747Y-80855804D01*
X137910400Y-80811662D01*
X137910400Y-79862738D01*
X137914747Y-79818596D01*
X137925832Y-79782056D01*
X137943833Y-79748379D01*
X137968059Y-79718859D01*
X137997579Y-79694633D01*
X138031256Y-79676632D01*
X138067796Y-79665547D01*
X138111938Y-79661200D01*
X139560862Y-79661200D01*
X139605004Y-79665547D01*
X139605004Y-79665547D01*
G37*
G36*
X157951000Y-80489400D02*
G01*
X156549000Y-80489400D01*
X156549000Y-79087400D01*
X157951000Y-79087400D01*
X157951000Y-80489400D01*
X157951000Y-80489400D01*
G37*
G36*
X152451000Y-79689400D02*
G01*
X151049000Y-79689400D01*
X151049000Y-77587400D01*
X152451000Y-77587400D01*
X152451000Y-79689400D01*
X152451000Y-79689400D01*
G37*
G36*
X172051000Y-79051000D02*
G01*
X169949000Y-79051000D01*
X169949000Y-77949000D01*
X172051000Y-77949000D01*
X172051000Y-79051000D01*
X172051000Y-79051000D01*
G37*
G36*
X188051000Y-79051000D02*
G01*
X185949000Y-79051000D01*
X185949000Y-77949000D01*
X188051000Y-77949000D01*
X188051000Y-79051000D01*
X188051000Y-79051000D01*
G37*
G36*
X157951000Y-78189400D02*
G01*
X156549000Y-78189400D01*
X156549000Y-76787400D01*
X157951000Y-76787400D01*
X157951000Y-78189400D01*
X157951000Y-78189400D01*
G37*
G36*
X172051000Y-77051000D02*
G01*
X169949000Y-77051000D01*
X169949000Y-75949000D01*
X172051000Y-75949000D01*
X172051000Y-77051000D01*
X172051000Y-77051000D01*
G37*
G36*
X188051000Y-77051000D02*
G01*
X185949000Y-77051000D01*
X185949000Y-75949000D01*
X188051000Y-75949000D01*
X188051000Y-77051000D01*
X188051000Y-77051000D01*
G37*
G36*
X172051000Y-75051000D02*
G01*
X169949000Y-75051000D01*
X169949000Y-73949000D01*
X172051000Y-73949000D01*
X172051000Y-75051000D01*
X172051000Y-75051000D01*
G37*
G36*
X188051000Y-75051000D02*
G01*
X185949000Y-75051000D01*
X185949000Y-73949000D01*
X188051000Y-73949000D01*
X188051000Y-75051000D01*
X188051000Y-75051000D01*
G37*
G36*
X129751000Y-74651000D02*
G01*
X127149000Y-74651000D01*
X127149000Y-72349000D01*
X129751000Y-72349000D01*
X129751000Y-74651000D01*
X129751000Y-74651000D01*
G37*
G36*
X131851000Y-74651000D02*
G01*
X130199000Y-74651000D01*
X130199000Y-72349000D01*
X131851000Y-72349000D01*
X131851000Y-74651000D01*
X131851000Y-74651000D01*
G37*
M02*
