G04 #@! TF.GenerationSoftware,KiCad,Pcbnew,(5.1.2-1)-1*
G04 #@! TF.CreationDate,2019-09-23T09:48:08+02:00*
G04 #@! TF.ProjectId,briefkastensensor,62726965-666b-4617-9374-656e73656e73,rev?*
G04 #@! TF.SameCoordinates,Original*
G04 #@! TF.FileFunction,Paste,Top*
G04 #@! TF.FilePolarity,Positive*
%FSLAX46Y46*%
G04 Gerber Fmt 4.6, Leading zero omitted, Abs format (unit mm)*
G04 Created by KiCad (PCBNEW (5.1.2-1)-1) date 2019-09-23 09:48:08*
%MOMM*%
%LPD*%
G04 APERTURE LIST*
%ADD10R,2.540000X3.510000*%
%ADD11C,0.100000*%
%ADD12C,1.250000*%
%ADD13C,0.950000*%
%ADD14C,0.875000*%
%ADD15R,0.600000X3.000000*%
%ADD16R,0.200000X0.600000*%
%ADD17R,2.000000X1.000000*%
%ADD18C,0.600000*%
%ADD19R,1.000000X3.150000*%
%ADD20R,1.550000X2.200000*%
%ADD21R,2.500000X2.200000*%
%ADD22R,1.300000X1.300000*%
%ADD23R,1.300000X2.000000*%
G04 APERTURE END LIST*
D10*
X105320000Y-87500000D03*
X134680000Y-87500000D03*
D11*
G36*
X154799504Y-94126204D02*
G01*
X154823773Y-94129804D01*
X154847571Y-94135765D01*
X154870671Y-94144030D01*
X154892849Y-94154520D01*
X154913893Y-94167133D01*
X154933598Y-94181747D01*
X154951777Y-94198223D01*
X154968253Y-94216402D01*
X154982867Y-94236107D01*
X154995480Y-94257151D01*
X155005970Y-94279329D01*
X155014235Y-94302429D01*
X155020196Y-94326227D01*
X155023796Y-94350496D01*
X155025000Y-94375000D01*
X155025000Y-95625000D01*
X155023796Y-95649504D01*
X155020196Y-95673773D01*
X155014235Y-95697571D01*
X155005970Y-95720671D01*
X154995480Y-95742849D01*
X154982867Y-95763893D01*
X154968253Y-95783598D01*
X154951777Y-95801777D01*
X154933598Y-95818253D01*
X154913893Y-95832867D01*
X154892849Y-95845480D01*
X154870671Y-95855970D01*
X154847571Y-95864235D01*
X154823773Y-95870196D01*
X154799504Y-95873796D01*
X154775000Y-95875000D01*
X154025000Y-95875000D01*
X154000496Y-95873796D01*
X153976227Y-95870196D01*
X153952429Y-95864235D01*
X153929329Y-95855970D01*
X153907151Y-95845480D01*
X153886107Y-95832867D01*
X153866402Y-95818253D01*
X153848223Y-95801777D01*
X153831747Y-95783598D01*
X153817133Y-95763893D01*
X153804520Y-95742849D01*
X153794030Y-95720671D01*
X153785765Y-95697571D01*
X153779804Y-95673773D01*
X153776204Y-95649504D01*
X153775000Y-95625000D01*
X153775000Y-94375000D01*
X153776204Y-94350496D01*
X153779804Y-94326227D01*
X153785765Y-94302429D01*
X153794030Y-94279329D01*
X153804520Y-94257151D01*
X153817133Y-94236107D01*
X153831747Y-94216402D01*
X153848223Y-94198223D01*
X153866402Y-94181747D01*
X153886107Y-94167133D01*
X153907151Y-94154520D01*
X153929329Y-94144030D01*
X153952429Y-94135765D01*
X153976227Y-94129804D01*
X154000496Y-94126204D01*
X154025000Y-94125000D01*
X154775000Y-94125000D01*
X154799504Y-94126204D01*
X154799504Y-94126204D01*
G37*
D12*
X154400000Y-95000000D03*
D11*
G36*
X151999504Y-94126204D02*
G01*
X152023773Y-94129804D01*
X152047571Y-94135765D01*
X152070671Y-94144030D01*
X152092849Y-94154520D01*
X152113893Y-94167133D01*
X152133598Y-94181747D01*
X152151777Y-94198223D01*
X152168253Y-94216402D01*
X152182867Y-94236107D01*
X152195480Y-94257151D01*
X152205970Y-94279329D01*
X152214235Y-94302429D01*
X152220196Y-94326227D01*
X152223796Y-94350496D01*
X152225000Y-94375000D01*
X152225000Y-95625000D01*
X152223796Y-95649504D01*
X152220196Y-95673773D01*
X152214235Y-95697571D01*
X152205970Y-95720671D01*
X152195480Y-95742849D01*
X152182867Y-95763893D01*
X152168253Y-95783598D01*
X152151777Y-95801777D01*
X152133598Y-95818253D01*
X152113893Y-95832867D01*
X152092849Y-95845480D01*
X152070671Y-95855970D01*
X152047571Y-95864235D01*
X152023773Y-95870196D01*
X151999504Y-95873796D01*
X151975000Y-95875000D01*
X151225000Y-95875000D01*
X151200496Y-95873796D01*
X151176227Y-95870196D01*
X151152429Y-95864235D01*
X151129329Y-95855970D01*
X151107151Y-95845480D01*
X151086107Y-95832867D01*
X151066402Y-95818253D01*
X151048223Y-95801777D01*
X151031747Y-95783598D01*
X151017133Y-95763893D01*
X151004520Y-95742849D01*
X150994030Y-95720671D01*
X150985765Y-95697571D01*
X150979804Y-95673773D01*
X150976204Y-95649504D01*
X150975000Y-95625000D01*
X150975000Y-94375000D01*
X150976204Y-94350496D01*
X150979804Y-94326227D01*
X150985765Y-94302429D01*
X150994030Y-94279329D01*
X151004520Y-94257151D01*
X151017133Y-94236107D01*
X151031747Y-94216402D01*
X151048223Y-94198223D01*
X151066402Y-94181747D01*
X151086107Y-94167133D01*
X151107151Y-94154520D01*
X151129329Y-94144030D01*
X151152429Y-94135765D01*
X151176227Y-94129804D01*
X151200496Y-94126204D01*
X151225000Y-94125000D01*
X151975000Y-94125000D01*
X151999504Y-94126204D01*
X151999504Y-94126204D01*
G37*
D12*
X151600000Y-95000000D03*
D11*
G36*
X139485904Y-79713404D02*
G01*
X139510173Y-79717004D01*
X139533971Y-79722965D01*
X139557071Y-79731230D01*
X139579249Y-79741720D01*
X139600293Y-79754333D01*
X139619998Y-79768947D01*
X139638177Y-79785423D01*
X139654653Y-79803602D01*
X139669267Y-79823307D01*
X139681880Y-79844351D01*
X139692370Y-79866529D01*
X139700635Y-79889629D01*
X139706596Y-79913427D01*
X139710196Y-79937696D01*
X139711400Y-79962200D01*
X139711400Y-80712200D01*
X139710196Y-80736704D01*
X139706596Y-80760973D01*
X139700635Y-80784771D01*
X139692370Y-80807871D01*
X139681880Y-80830049D01*
X139669267Y-80851093D01*
X139654653Y-80870798D01*
X139638177Y-80888977D01*
X139619998Y-80905453D01*
X139600293Y-80920067D01*
X139579249Y-80932680D01*
X139557071Y-80943170D01*
X139533971Y-80951435D01*
X139510173Y-80957396D01*
X139485904Y-80960996D01*
X139461400Y-80962200D01*
X138211400Y-80962200D01*
X138186896Y-80960996D01*
X138162627Y-80957396D01*
X138138829Y-80951435D01*
X138115729Y-80943170D01*
X138093551Y-80932680D01*
X138072507Y-80920067D01*
X138052802Y-80905453D01*
X138034623Y-80888977D01*
X138018147Y-80870798D01*
X138003533Y-80851093D01*
X137990920Y-80830049D01*
X137980430Y-80807871D01*
X137972165Y-80784771D01*
X137966204Y-80760973D01*
X137962604Y-80736704D01*
X137961400Y-80712200D01*
X137961400Y-79962200D01*
X137962604Y-79937696D01*
X137966204Y-79913427D01*
X137972165Y-79889629D01*
X137980430Y-79866529D01*
X137990920Y-79844351D01*
X138003533Y-79823307D01*
X138018147Y-79803602D01*
X138034623Y-79785423D01*
X138052802Y-79768947D01*
X138072507Y-79754333D01*
X138093551Y-79741720D01*
X138115729Y-79731230D01*
X138138829Y-79722965D01*
X138162627Y-79717004D01*
X138186896Y-79713404D01*
X138211400Y-79712200D01*
X139461400Y-79712200D01*
X139485904Y-79713404D01*
X139485904Y-79713404D01*
G37*
D12*
X138836400Y-80337200D03*
D11*
G36*
X139485904Y-82513404D02*
G01*
X139510173Y-82517004D01*
X139533971Y-82522965D01*
X139557071Y-82531230D01*
X139579249Y-82541720D01*
X139600293Y-82554333D01*
X139619998Y-82568947D01*
X139638177Y-82585423D01*
X139654653Y-82603602D01*
X139669267Y-82623307D01*
X139681880Y-82644351D01*
X139692370Y-82666529D01*
X139700635Y-82689629D01*
X139706596Y-82713427D01*
X139710196Y-82737696D01*
X139711400Y-82762200D01*
X139711400Y-83512200D01*
X139710196Y-83536704D01*
X139706596Y-83560973D01*
X139700635Y-83584771D01*
X139692370Y-83607871D01*
X139681880Y-83630049D01*
X139669267Y-83651093D01*
X139654653Y-83670798D01*
X139638177Y-83688977D01*
X139619998Y-83705453D01*
X139600293Y-83720067D01*
X139579249Y-83732680D01*
X139557071Y-83743170D01*
X139533971Y-83751435D01*
X139510173Y-83757396D01*
X139485904Y-83760996D01*
X139461400Y-83762200D01*
X138211400Y-83762200D01*
X138186896Y-83760996D01*
X138162627Y-83757396D01*
X138138829Y-83751435D01*
X138115729Y-83743170D01*
X138093551Y-83732680D01*
X138072507Y-83720067D01*
X138052802Y-83705453D01*
X138034623Y-83688977D01*
X138018147Y-83670798D01*
X138003533Y-83651093D01*
X137990920Y-83630049D01*
X137980430Y-83607871D01*
X137972165Y-83584771D01*
X137966204Y-83560973D01*
X137962604Y-83536704D01*
X137961400Y-83512200D01*
X137961400Y-82762200D01*
X137962604Y-82737696D01*
X137966204Y-82713427D01*
X137972165Y-82689629D01*
X137980430Y-82666529D01*
X137990920Y-82644351D01*
X138003533Y-82623307D01*
X138018147Y-82603602D01*
X138034623Y-82585423D01*
X138052802Y-82568947D01*
X138072507Y-82554333D01*
X138093551Y-82541720D01*
X138115729Y-82531230D01*
X138138829Y-82522965D01*
X138162627Y-82517004D01*
X138186896Y-82513404D01*
X138211400Y-82512200D01*
X139461400Y-82512200D01*
X139485904Y-82513404D01*
X139485904Y-82513404D01*
G37*
D12*
X138836400Y-83137200D03*
D11*
G36*
X191141779Y-90965644D02*
G01*
X191164834Y-90969063D01*
X191187443Y-90974727D01*
X191209387Y-90982579D01*
X191230457Y-90992544D01*
X191250448Y-91004526D01*
X191269168Y-91018410D01*
X191286438Y-91034062D01*
X191302090Y-91051332D01*
X191315974Y-91070052D01*
X191327956Y-91090043D01*
X191337921Y-91111113D01*
X191345773Y-91133057D01*
X191351437Y-91155666D01*
X191354856Y-91178721D01*
X191356000Y-91202000D01*
X191356000Y-91777000D01*
X191354856Y-91800279D01*
X191351437Y-91823334D01*
X191345773Y-91845943D01*
X191337921Y-91867887D01*
X191327956Y-91888957D01*
X191315974Y-91908948D01*
X191302090Y-91927668D01*
X191286438Y-91944938D01*
X191269168Y-91960590D01*
X191250448Y-91974474D01*
X191230457Y-91986456D01*
X191209387Y-91996421D01*
X191187443Y-92004273D01*
X191164834Y-92009937D01*
X191141779Y-92013356D01*
X191118500Y-92014500D01*
X190643500Y-92014500D01*
X190620221Y-92013356D01*
X190597166Y-92009937D01*
X190574557Y-92004273D01*
X190552613Y-91996421D01*
X190531543Y-91986456D01*
X190511552Y-91974474D01*
X190492832Y-91960590D01*
X190475562Y-91944938D01*
X190459910Y-91927668D01*
X190446026Y-91908948D01*
X190434044Y-91888957D01*
X190424079Y-91867887D01*
X190416227Y-91845943D01*
X190410563Y-91823334D01*
X190407144Y-91800279D01*
X190406000Y-91777000D01*
X190406000Y-91202000D01*
X190407144Y-91178721D01*
X190410563Y-91155666D01*
X190416227Y-91133057D01*
X190424079Y-91111113D01*
X190434044Y-91090043D01*
X190446026Y-91070052D01*
X190459910Y-91051332D01*
X190475562Y-91034062D01*
X190492832Y-91018410D01*
X190511552Y-91004526D01*
X190531543Y-90992544D01*
X190552613Y-90982579D01*
X190574557Y-90974727D01*
X190597166Y-90969063D01*
X190620221Y-90965644D01*
X190643500Y-90964500D01*
X191118500Y-90964500D01*
X191141779Y-90965644D01*
X191141779Y-90965644D01*
G37*
D13*
X190881000Y-91489500D03*
D11*
G36*
X191141779Y-89215644D02*
G01*
X191164834Y-89219063D01*
X191187443Y-89224727D01*
X191209387Y-89232579D01*
X191230457Y-89242544D01*
X191250448Y-89254526D01*
X191269168Y-89268410D01*
X191286438Y-89284062D01*
X191302090Y-89301332D01*
X191315974Y-89320052D01*
X191327956Y-89340043D01*
X191337921Y-89361113D01*
X191345773Y-89383057D01*
X191351437Y-89405666D01*
X191354856Y-89428721D01*
X191356000Y-89452000D01*
X191356000Y-90027000D01*
X191354856Y-90050279D01*
X191351437Y-90073334D01*
X191345773Y-90095943D01*
X191337921Y-90117887D01*
X191327956Y-90138957D01*
X191315974Y-90158948D01*
X191302090Y-90177668D01*
X191286438Y-90194938D01*
X191269168Y-90210590D01*
X191250448Y-90224474D01*
X191230457Y-90236456D01*
X191209387Y-90246421D01*
X191187443Y-90254273D01*
X191164834Y-90259937D01*
X191141779Y-90263356D01*
X191118500Y-90264500D01*
X190643500Y-90264500D01*
X190620221Y-90263356D01*
X190597166Y-90259937D01*
X190574557Y-90254273D01*
X190552613Y-90246421D01*
X190531543Y-90236456D01*
X190511552Y-90224474D01*
X190492832Y-90210590D01*
X190475562Y-90194938D01*
X190459910Y-90177668D01*
X190446026Y-90158948D01*
X190434044Y-90138957D01*
X190424079Y-90117887D01*
X190416227Y-90095943D01*
X190410563Y-90073334D01*
X190407144Y-90050279D01*
X190406000Y-90027000D01*
X190406000Y-89452000D01*
X190407144Y-89428721D01*
X190410563Y-89405666D01*
X190416227Y-89383057D01*
X190424079Y-89361113D01*
X190434044Y-89340043D01*
X190446026Y-89320052D01*
X190459910Y-89301332D01*
X190475562Y-89284062D01*
X190492832Y-89268410D01*
X190511552Y-89254526D01*
X190531543Y-89242544D01*
X190552613Y-89232579D01*
X190574557Y-89224727D01*
X190597166Y-89219063D01*
X190620221Y-89215644D01*
X190643500Y-89214500D01*
X191118500Y-89214500D01*
X191141779Y-89215644D01*
X191141779Y-89215644D01*
G37*
D13*
X190881000Y-89739500D03*
D11*
G36*
X191121891Y-87019653D02*
G01*
X191143126Y-87022803D01*
X191163950Y-87028019D01*
X191184162Y-87035251D01*
X191203568Y-87044430D01*
X191221981Y-87055466D01*
X191239224Y-87068254D01*
X191255130Y-87082670D01*
X191269546Y-87098576D01*
X191282334Y-87115819D01*
X191293370Y-87134232D01*
X191302549Y-87153638D01*
X191309781Y-87173850D01*
X191314997Y-87194674D01*
X191318147Y-87215909D01*
X191319200Y-87237350D01*
X191319200Y-87749850D01*
X191318147Y-87771291D01*
X191314997Y-87792526D01*
X191309781Y-87813350D01*
X191302549Y-87833562D01*
X191293370Y-87852968D01*
X191282334Y-87871381D01*
X191269546Y-87888624D01*
X191255130Y-87904530D01*
X191239224Y-87918946D01*
X191221981Y-87931734D01*
X191203568Y-87942770D01*
X191184162Y-87951949D01*
X191163950Y-87959181D01*
X191143126Y-87964397D01*
X191121891Y-87967547D01*
X191100450Y-87968600D01*
X190662950Y-87968600D01*
X190641509Y-87967547D01*
X190620274Y-87964397D01*
X190599450Y-87959181D01*
X190579238Y-87951949D01*
X190559832Y-87942770D01*
X190541419Y-87931734D01*
X190524176Y-87918946D01*
X190508270Y-87904530D01*
X190493854Y-87888624D01*
X190481066Y-87871381D01*
X190470030Y-87852968D01*
X190460851Y-87833562D01*
X190453619Y-87813350D01*
X190448403Y-87792526D01*
X190445253Y-87771291D01*
X190444200Y-87749850D01*
X190444200Y-87237350D01*
X190445253Y-87215909D01*
X190448403Y-87194674D01*
X190453619Y-87173850D01*
X190460851Y-87153638D01*
X190470030Y-87134232D01*
X190481066Y-87115819D01*
X190493854Y-87098576D01*
X190508270Y-87082670D01*
X190524176Y-87068254D01*
X190541419Y-87055466D01*
X190559832Y-87044430D01*
X190579238Y-87035251D01*
X190599450Y-87028019D01*
X190620274Y-87022803D01*
X190641509Y-87019653D01*
X190662950Y-87018600D01*
X191100450Y-87018600D01*
X191121891Y-87019653D01*
X191121891Y-87019653D01*
G37*
D14*
X190881700Y-87493600D03*
D11*
G36*
X192696891Y-87019653D02*
G01*
X192718126Y-87022803D01*
X192738950Y-87028019D01*
X192759162Y-87035251D01*
X192778568Y-87044430D01*
X192796981Y-87055466D01*
X192814224Y-87068254D01*
X192830130Y-87082670D01*
X192844546Y-87098576D01*
X192857334Y-87115819D01*
X192868370Y-87134232D01*
X192877549Y-87153638D01*
X192884781Y-87173850D01*
X192889997Y-87194674D01*
X192893147Y-87215909D01*
X192894200Y-87237350D01*
X192894200Y-87749850D01*
X192893147Y-87771291D01*
X192889997Y-87792526D01*
X192884781Y-87813350D01*
X192877549Y-87833562D01*
X192868370Y-87852968D01*
X192857334Y-87871381D01*
X192844546Y-87888624D01*
X192830130Y-87904530D01*
X192814224Y-87918946D01*
X192796981Y-87931734D01*
X192778568Y-87942770D01*
X192759162Y-87951949D01*
X192738950Y-87959181D01*
X192718126Y-87964397D01*
X192696891Y-87967547D01*
X192675450Y-87968600D01*
X192237950Y-87968600D01*
X192216509Y-87967547D01*
X192195274Y-87964397D01*
X192174450Y-87959181D01*
X192154238Y-87951949D01*
X192134832Y-87942770D01*
X192116419Y-87931734D01*
X192099176Y-87918946D01*
X192083270Y-87904530D01*
X192068854Y-87888624D01*
X192056066Y-87871381D01*
X192045030Y-87852968D01*
X192035851Y-87833562D01*
X192028619Y-87813350D01*
X192023403Y-87792526D01*
X192020253Y-87771291D01*
X192019200Y-87749850D01*
X192019200Y-87237350D01*
X192020253Y-87215909D01*
X192023403Y-87194674D01*
X192028619Y-87173850D01*
X192035851Y-87153638D01*
X192045030Y-87134232D01*
X192056066Y-87115819D01*
X192068854Y-87098576D01*
X192083270Y-87082670D01*
X192099176Y-87068254D01*
X192116419Y-87055466D01*
X192134832Y-87044430D01*
X192154238Y-87035251D01*
X192174450Y-87028019D01*
X192195274Y-87022803D01*
X192216509Y-87019653D01*
X192237950Y-87018600D01*
X192675450Y-87018600D01*
X192696891Y-87019653D01*
X192696891Y-87019653D01*
G37*
D14*
X192456700Y-87493600D03*
D15*
X160400000Y-84500000D03*
X161600000Y-90500000D03*
X161600000Y-84500000D03*
X160400000Y-90500000D03*
D16*
X193400000Y-87500000D03*
D17*
X187000000Y-74500000D03*
X187000000Y-76500000D03*
X187000000Y-78500000D03*
X187000000Y-80500000D03*
X187000000Y-82500000D03*
X187000000Y-84500000D03*
X187000000Y-86500000D03*
X187000000Y-88500000D03*
X171000000Y-88500000D03*
X171000000Y-86500000D03*
X171000000Y-84500000D03*
X171000000Y-82500000D03*
X171000000Y-80500000D03*
X171000000Y-78500000D03*
X171000000Y-76500000D03*
X171000000Y-74500000D03*
D11*
G36*
X148314703Y-81390722D02*
G01*
X148329264Y-81392882D01*
X148343543Y-81396459D01*
X148357403Y-81401418D01*
X148370710Y-81407712D01*
X148383336Y-81415280D01*
X148395159Y-81424048D01*
X148406066Y-81433934D01*
X148415952Y-81444841D01*
X148424720Y-81456664D01*
X148432288Y-81469290D01*
X148438582Y-81482597D01*
X148443541Y-81496457D01*
X148447118Y-81510736D01*
X148449278Y-81525297D01*
X148450000Y-81540000D01*
X148450000Y-81840000D01*
X148449278Y-81854703D01*
X148447118Y-81869264D01*
X148443541Y-81883543D01*
X148438582Y-81897403D01*
X148432288Y-81910710D01*
X148424720Y-81923336D01*
X148415952Y-81935159D01*
X148406066Y-81946066D01*
X148395159Y-81955952D01*
X148383336Y-81964720D01*
X148370710Y-81972288D01*
X148357403Y-81978582D01*
X148343543Y-81983541D01*
X148329264Y-81987118D01*
X148314703Y-81989278D01*
X148300000Y-81990000D01*
X146650000Y-81990000D01*
X146635297Y-81989278D01*
X146620736Y-81987118D01*
X146606457Y-81983541D01*
X146592597Y-81978582D01*
X146579290Y-81972288D01*
X146566664Y-81964720D01*
X146554841Y-81955952D01*
X146543934Y-81946066D01*
X146534048Y-81935159D01*
X146525280Y-81923336D01*
X146517712Y-81910710D01*
X146511418Y-81897403D01*
X146506459Y-81883543D01*
X146502882Y-81869264D01*
X146500722Y-81854703D01*
X146500000Y-81840000D01*
X146500000Y-81540000D01*
X146500722Y-81525297D01*
X146502882Y-81510736D01*
X146506459Y-81496457D01*
X146511418Y-81482597D01*
X146517712Y-81469290D01*
X146525280Y-81456664D01*
X146534048Y-81444841D01*
X146543934Y-81433934D01*
X146554841Y-81424048D01*
X146566664Y-81415280D01*
X146579290Y-81407712D01*
X146592597Y-81401418D01*
X146606457Y-81396459D01*
X146620736Y-81392882D01*
X146635297Y-81390722D01*
X146650000Y-81390000D01*
X148300000Y-81390000D01*
X148314703Y-81390722D01*
X148314703Y-81390722D01*
G37*
D18*
X147475000Y-81690000D03*
D11*
G36*
X148314703Y-82660722D02*
G01*
X148329264Y-82662882D01*
X148343543Y-82666459D01*
X148357403Y-82671418D01*
X148370710Y-82677712D01*
X148383336Y-82685280D01*
X148395159Y-82694048D01*
X148406066Y-82703934D01*
X148415952Y-82714841D01*
X148424720Y-82726664D01*
X148432288Y-82739290D01*
X148438582Y-82752597D01*
X148443541Y-82766457D01*
X148447118Y-82780736D01*
X148449278Y-82795297D01*
X148450000Y-82810000D01*
X148450000Y-83110000D01*
X148449278Y-83124703D01*
X148447118Y-83139264D01*
X148443541Y-83153543D01*
X148438582Y-83167403D01*
X148432288Y-83180710D01*
X148424720Y-83193336D01*
X148415952Y-83205159D01*
X148406066Y-83216066D01*
X148395159Y-83225952D01*
X148383336Y-83234720D01*
X148370710Y-83242288D01*
X148357403Y-83248582D01*
X148343543Y-83253541D01*
X148329264Y-83257118D01*
X148314703Y-83259278D01*
X148300000Y-83260000D01*
X146650000Y-83260000D01*
X146635297Y-83259278D01*
X146620736Y-83257118D01*
X146606457Y-83253541D01*
X146592597Y-83248582D01*
X146579290Y-83242288D01*
X146566664Y-83234720D01*
X146554841Y-83225952D01*
X146543934Y-83216066D01*
X146534048Y-83205159D01*
X146525280Y-83193336D01*
X146517712Y-83180710D01*
X146511418Y-83167403D01*
X146506459Y-83153543D01*
X146502882Y-83139264D01*
X146500722Y-83124703D01*
X146500000Y-83110000D01*
X146500000Y-82810000D01*
X146500722Y-82795297D01*
X146502882Y-82780736D01*
X146506459Y-82766457D01*
X146511418Y-82752597D01*
X146517712Y-82739290D01*
X146525280Y-82726664D01*
X146534048Y-82714841D01*
X146543934Y-82703934D01*
X146554841Y-82694048D01*
X146566664Y-82685280D01*
X146579290Y-82677712D01*
X146592597Y-82671418D01*
X146606457Y-82666459D01*
X146620736Y-82662882D01*
X146635297Y-82660722D01*
X146650000Y-82660000D01*
X148300000Y-82660000D01*
X148314703Y-82660722D01*
X148314703Y-82660722D01*
G37*
D18*
X147475000Y-82960000D03*
D11*
G36*
X148314703Y-83930722D02*
G01*
X148329264Y-83932882D01*
X148343543Y-83936459D01*
X148357403Y-83941418D01*
X148370710Y-83947712D01*
X148383336Y-83955280D01*
X148395159Y-83964048D01*
X148406066Y-83973934D01*
X148415952Y-83984841D01*
X148424720Y-83996664D01*
X148432288Y-84009290D01*
X148438582Y-84022597D01*
X148443541Y-84036457D01*
X148447118Y-84050736D01*
X148449278Y-84065297D01*
X148450000Y-84080000D01*
X148450000Y-84380000D01*
X148449278Y-84394703D01*
X148447118Y-84409264D01*
X148443541Y-84423543D01*
X148438582Y-84437403D01*
X148432288Y-84450710D01*
X148424720Y-84463336D01*
X148415952Y-84475159D01*
X148406066Y-84486066D01*
X148395159Y-84495952D01*
X148383336Y-84504720D01*
X148370710Y-84512288D01*
X148357403Y-84518582D01*
X148343543Y-84523541D01*
X148329264Y-84527118D01*
X148314703Y-84529278D01*
X148300000Y-84530000D01*
X146650000Y-84530000D01*
X146635297Y-84529278D01*
X146620736Y-84527118D01*
X146606457Y-84523541D01*
X146592597Y-84518582D01*
X146579290Y-84512288D01*
X146566664Y-84504720D01*
X146554841Y-84495952D01*
X146543934Y-84486066D01*
X146534048Y-84475159D01*
X146525280Y-84463336D01*
X146517712Y-84450710D01*
X146511418Y-84437403D01*
X146506459Y-84423543D01*
X146502882Y-84409264D01*
X146500722Y-84394703D01*
X146500000Y-84380000D01*
X146500000Y-84080000D01*
X146500722Y-84065297D01*
X146502882Y-84050736D01*
X146506459Y-84036457D01*
X146511418Y-84022597D01*
X146517712Y-84009290D01*
X146525280Y-83996664D01*
X146534048Y-83984841D01*
X146543934Y-83973934D01*
X146554841Y-83964048D01*
X146566664Y-83955280D01*
X146579290Y-83947712D01*
X146592597Y-83941418D01*
X146606457Y-83936459D01*
X146620736Y-83932882D01*
X146635297Y-83930722D01*
X146650000Y-83930000D01*
X148300000Y-83930000D01*
X148314703Y-83930722D01*
X148314703Y-83930722D01*
G37*
D18*
X147475000Y-84230000D03*
D11*
G36*
X148314703Y-85200722D02*
G01*
X148329264Y-85202882D01*
X148343543Y-85206459D01*
X148357403Y-85211418D01*
X148370710Y-85217712D01*
X148383336Y-85225280D01*
X148395159Y-85234048D01*
X148406066Y-85243934D01*
X148415952Y-85254841D01*
X148424720Y-85266664D01*
X148432288Y-85279290D01*
X148438582Y-85292597D01*
X148443541Y-85306457D01*
X148447118Y-85320736D01*
X148449278Y-85335297D01*
X148450000Y-85350000D01*
X148450000Y-85650000D01*
X148449278Y-85664703D01*
X148447118Y-85679264D01*
X148443541Y-85693543D01*
X148438582Y-85707403D01*
X148432288Y-85720710D01*
X148424720Y-85733336D01*
X148415952Y-85745159D01*
X148406066Y-85756066D01*
X148395159Y-85765952D01*
X148383336Y-85774720D01*
X148370710Y-85782288D01*
X148357403Y-85788582D01*
X148343543Y-85793541D01*
X148329264Y-85797118D01*
X148314703Y-85799278D01*
X148300000Y-85800000D01*
X146650000Y-85800000D01*
X146635297Y-85799278D01*
X146620736Y-85797118D01*
X146606457Y-85793541D01*
X146592597Y-85788582D01*
X146579290Y-85782288D01*
X146566664Y-85774720D01*
X146554841Y-85765952D01*
X146543934Y-85756066D01*
X146534048Y-85745159D01*
X146525280Y-85733336D01*
X146517712Y-85720710D01*
X146511418Y-85707403D01*
X146506459Y-85693543D01*
X146502882Y-85679264D01*
X146500722Y-85664703D01*
X146500000Y-85650000D01*
X146500000Y-85350000D01*
X146500722Y-85335297D01*
X146502882Y-85320736D01*
X146506459Y-85306457D01*
X146511418Y-85292597D01*
X146517712Y-85279290D01*
X146525280Y-85266664D01*
X146534048Y-85254841D01*
X146543934Y-85243934D01*
X146554841Y-85234048D01*
X146566664Y-85225280D01*
X146579290Y-85217712D01*
X146592597Y-85211418D01*
X146606457Y-85206459D01*
X146620736Y-85202882D01*
X146635297Y-85200722D01*
X146650000Y-85200000D01*
X148300000Y-85200000D01*
X148314703Y-85200722D01*
X148314703Y-85200722D01*
G37*
D18*
X147475000Y-85500000D03*
D11*
G36*
X148314703Y-86470722D02*
G01*
X148329264Y-86472882D01*
X148343543Y-86476459D01*
X148357403Y-86481418D01*
X148370710Y-86487712D01*
X148383336Y-86495280D01*
X148395159Y-86504048D01*
X148406066Y-86513934D01*
X148415952Y-86524841D01*
X148424720Y-86536664D01*
X148432288Y-86549290D01*
X148438582Y-86562597D01*
X148443541Y-86576457D01*
X148447118Y-86590736D01*
X148449278Y-86605297D01*
X148450000Y-86620000D01*
X148450000Y-86920000D01*
X148449278Y-86934703D01*
X148447118Y-86949264D01*
X148443541Y-86963543D01*
X148438582Y-86977403D01*
X148432288Y-86990710D01*
X148424720Y-87003336D01*
X148415952Y-87015159D01*
X148406066Y-87026066D01*
X148395159Y-87035952D01*
X148383336Y-87044720D01*
X148370710Y-87052288D01*
X148357403Y-87058582D01*
X148343543Y-87063541D01*
X148329264Y-87067118D01*
X148314703Y-87069278D01*
X148300000Y-87070000D01*
X146650000Y-87070000D01*
X146635297Y-87069278D01*
X146620736Y-87067118D01*
X146606457Y-87063541D01*
X146592597Y-87058582D01*
X146579290Y-87052288D01*
X146566664Y-87044720D01*
X146554841Y-87035952D01*
X146543934Y-87026066D01*
X146534048Y-87015159D01*
X146525280Y-87003336D01*
X146517712Y-86990710D01*
X146511418Y-86977403D01*
X146506459Y-86963543D01*
X146502882Y-86949264D01*
X146500722Y-86934703D01*
X146500000Y-86920000D01*
X146500000Y-86620000D01*
X146500722Y-86605297D01*
X146502882Y-86590736D01*
X146506459Y-86576457D01*
X146511418Y-86562597D01*
X146517712Y-86549290D01*
X146525280Y-86536664D01*
X146534048Y-86524841D01*
X146543934Y-86513934D01*
X146554841Y-86504048D01*
X146566664Y-86495280D01*
X146579290Y-86487712D01*
X146592597Y-86481418D01*
X146606457Y-86476459D01*
X146620736Y-86472882D01*
X146635297Y-86470722D01*
X146650000Y-86470000D01*
X148300000Y-86470000D01*
X148314703Y-86470722D01*
X148314703Y-86470722D01*
G37*
D18*
X147475000Y-86770000D03*
D11*
G36*
X148314703Y-87740722D02*
G01*
X148329264Y-87742882D01*
X148343543Y-87746459D01*
X148357403Y-87751418D01*
X148370710Y-87757712D01*
X148383336Y-87765280D01*
X148395159Y-87774048D01*
X148406066Y-87783934D01*
X148415952Y-87794841D01*
X148424720Y-87806664D01*
X148432288Y-87819290D01*
X148438582Y-87832597D01*
X148443541Y-87846457D01*
X148447118Y-87860736D01*
X148449278Y-87875297D01*
X148450000Y-87890000D01*
X148450000Y-88190000D01*
X148449278Y-88204703D01*
X148447118Y-88219264D01*
X148443541Y-88233543D01*
X148438582Y-88247403D01*
X148432288Y-88260710D01*
X148424720Y-88273336D01*
X148415952Y-88285159D01*
X148406066Y-88296066D01*
X148395159Y-88305952D01*
X148383336Y-88314720D01*
X148370710Y-88322288D01*
X148357403Y-88328582D01*
X148343543Y-88333541D01*
X148329264Y-88337118D01*
X148314703Y-88339278D01*
X148300000Y-88340000D01*
X146650000Y-88340000D01*
X146635297Y-88339278D01*
X146620736Y-88337118D01*
X146606457Y-88333541D01*
X146592597Y-88328582D01*
X146579290Y-88322288D01*
X146566664Y-88314720D01*
X146554841Y-88305952D01*
X146543934Y-88296066D01*
X146534048Y-88285159D01*
X146525280Y-88273336D01*
X146517712Y-88260710D01*
X146511418Y-88247403D01*
X146506459Y-88233543D01*
X146502882Y-88219264D01*
X146500722Y-88204703D01*
X146500000Y-88190000D01*
X146500000Y-87890000D01*
X146500722Y-87875297D01*
X146502882Y-87860736D01*
X146506459Y-87846457D01*
X146511418Y-87832597D01*
X146517712Y-87819290D01*
X146525280Y-87806664D01*
X146534048Y-87794841D01*
X146543934Y-87783934D01*
X146554841Y-87774048D01*
X146566664Y-87765280D01*
X146579290Y-87757712D01*
X146592597Y-87751418D01*
X146606457Y-87746459D01*
X146620736Y-87742882D01*
X146635297Y-87740722D01*
X146650000Y-87740000D01*
X148300000Y-87740000D01*
X148314703Y-87740722D01*
X148314703Y-87740722D01*
G37*
D18*
X147475000Y-88040000D03*
D11*
G36*
X148314703Y-89010722D02*
G01*
X148329264Y-89012882D01*
X148343543Y-89016459D01*
X148357403Y-89021418D01*
X148370710Y-89027712D01*
X148383336Y-89035280D01*
X148395159Y-89044048D01*
X148406066Y-89053934D01*
X148415952Y-89064841D01*
X148424720Y-89076664D01*
X148432288Y-89089290D01*
X148438582Y-89102597D01*
X148443541Y-89116457D01*
X148447118Y-89130736D01*
X148449278Y-89145297D01*
X148450000Y-89160000D01*
X148450000Y-89460000D01*
X148449278Y-89474703D01*
X148447118Y-89489264D01*
X148443541Y-89503543D01*
X148438582Y-89517403D01*
X148432288Y-89530710D01*
X148424720Y-89543336D01*
X148415952Y-89555159D01*
X148406066Y-89566066D01*
X148395159Y-89575952D01*
X148383336Y-89584720D01*
X148370710Y-89592288D01*
X148357403Y-89598582D01*
X148343543Y-89603541D01*
X148329264Y-89607118D01*
X148314703Y-89609278D01*
X148300000Y-89610000D01*
X146650000Y-89610000D01*
X146635297Y-89609278D01*
X146620736Y-89607118D01*
X146606457Y-89603541D01*
X146592597Y-89598582D01*
X146579290Y-89592288D01*
X146566664Y-89584720D01*
X146554841Y-89575952D01*
X146543934Y-89566066D01*
X146534048Y-89555159D01*
X146525280Y-89543336D01*
X146517712Y-89530710D01*
X146511418Y-89517403D01*
X146506459Y-89503543D01*
X146502882Y-89489264D01*
X146500722Y-89474703D01*
X146500000Y-89460000D01*
X146500000Y-89160000D01*
X146500722Y-89145297D01*
X146502882Y-89130736D01*
X146506459Y-89116457D01*
X146511418Y-89102597D01*
X146517712Y-89089290D01*
X146525280Y-89076664D01*
X146534048Y-89064841D01*
X146543934Y-89053934D01*
X146554841Y-89044048D01*
X146566664Y-89035280D01*
X146579290Y-89027712D01*
X146592597Y-89021418D01*
X146606457Y-89016459D01*
X146620736Y-89012882D01*
X146635297Y-89010722D01*
X146650000Y-89010000D01*
X148300000Y-89010000D01*
X148314703Y-89010722D01*
X148314703Y-89010722D01*
G37*
D18*
X147475000Y-89310000D03*
D11*
G36*
X143364703Y-89010722D02*
G01*
X143379264Y-89012882D01*
X143393543Y-89016459D01*
X143407403Y-89021418D01*
X143420710Y-89027712D01*
X143433336Y-89035280D01*
X143445159Y-89044048D01*
X143456066Y-89053934D01*
X143465952Y-89064841D01*
X143474720Y-89076664D01*
X143482288Y-89089290D01*
X143488582Y-89102597D01*
X143493541Y-89116457D01*
X143497118Y-89130736D01*
X143499278Y-89145297D01*
X143500000Y-89160000D01*
X143500000Y-89460000D01*
X143499278Y-89474703D01*
X143497118Y-89489264D01*
X143493541Y-89503543D01*
X143488582Y-89517403D01*
X143482288Y-89530710D01*
X143474720Y-89543336D01*
X143465952Y-89555159D01*
X143456066Y-89566066D01*
X143445159Y-89575952D01*
X143433336Y-89584720D01*
X143420710Y-89592288D01*
X143407403Y-89598582D01*
X143393543Y-89603541D01*
X143379264Y-89607118D01*
X143364703Y-89609278D01*
X143350000Y-89610000D01*
X141700000Y-89610000D01*
X141685297Y-89609278D01*
X141670736Y-89607118D01*
X141656457Y-89603541D01*
X141642597Y-89598582D01*
X141629290Y-89592288D01*
X141616664Y-89584720D01*
X141604841Y-89575952D01*
X141593934Y-89566066D01*
X141584048Y-89555159D01*
X141575280Y-89543336D01*
X141567712Y-89530710D01*
X141561418Y-89517403D01*
X141556459Y-89503543D01*
X141552882Y-89489264D01*
X141550722Y-89474703D01*
X141550000Y-89460000D01*
X141550000Y-89160000D01*
X141550722Y-89145297D01*
X141552882Y-89130736D01*
X141556459Y-89116457D01*
X141561418Y-89102597D01*
X141567712Y-89089290D01*
X141575280Y-89076664D01*
X141584048Y-89064841D01*
X141593934Y-89053934D01*
X141604841Y-89044048D01*
X141616664Y-89035280D01*
X141629290Y-89027712D01*
X141642597Y-89021418D01*
X141656457Y-89016459D01*
X141670736Y-89012882D01*
X141685297Y-89010722D01*
X141700000Y-89010000D01*
X143350000Y-89010000D01*
X143364703Y-89010722D01*
X143364703Y-89010722D01*
G37*
D18*
X142525000Y-89310000D03*
D11*
G36*
X143364703Y-87740722D02*
G01*
X143379264Y-87742882D01*
X143393543Y-87746459D01*
X143407403Y-87751418D01*
X143420710Y-87757712D01*
X143433336Y-87765280D01*
X143445159Y-87774048D01*
X143456066Y-87783934D01*
X143465952Y-87794841D01*
X143474720Y-87806664D01*
X143482288Y-87819290D01*
X143488582Y-87832597D01*
X143493541Y-87846457D01*
X143497118Y-87860736D01*
X143499278Y-87875297D01*
X143500000Y-87890000D01*
X143500000Y-88190000D01*
X143499278Y-88204703D01*
X143497118Y-88219264D01*
X143493541Y-88233543D01*
X143488582Y-88247403D01*
X143482288Y-88260710D01*
X143474720Y-88273336D01*
X143465952Y-88285159D01*
X143456066Y-88296066D01*
X143445159Y-88305952D01*
X143433336Y-88314720D01*
X143420710Y-88322288D01*
X143407403Y-88328582D01*
X143393543Y-88333541D01*
X143379264Y-88337118D01*
X143364703Y-88339278D01*
X143350000Y-88340000D01*
X141700000Y-88340000D01*
X141685297Y-88339278D01*
X141670736Y-88337118D01*
X141656457Y-88333541D01*
X141642597Y-88328582D01*
X141629290Y-88322288D01*
X141616664Y-88314720D01*
X141604841Y-88305952D01*
X141593934Y-88296066D01*
X141584048Y-88285159D01*
X141575280Y-88273336D01*
X141567712Y-88260710D01*
X141561418Y-88247403D01*
X141556459Y-88233543D01*
X141552882Y-88219264D01*
X141550722Y-88204703D01*
X141550000Y-88190000D01*
X141550000Y-87890000D01*
X141550722Y-87875297D01*
X141552882Y-87860736D01*
X141556459Y-87846457D01*
X141561418Y-87832597D01*
X141567712Y-87819290D01*
X141575280Y-87806664D01*
X141584048Y-87794841D01*
X141593934Y-87783934D01*
X141604841Y-87774048D01*
X141616664Y-87765280D01*
X141629290Y-87757712D01*
X141642597Y-87751418D01*
X141656457Y-87746459D01*
X141670736Y-87742882D01*
X141685297Y-87740722D01*
X141700000Y-87740000D01*
X143350000Y-87740000D01*
X143364703Y-87740722D01*
X143364703Y-87740722D01*
G37*
D18*
X142525000Y-88040000D03*
D11*
G36*
X143364703Y-86470722D02*
G01*
X143379264Y-86472882D01*
X143393543Y-86476459D01*
X143407403Y-86481418D01*
X143420710Y-86487712D01*
X143433336Y-86495280D01*
X143445159Y-86504048D01*
X143456066Y-86513934D01*
X143465952Y-86524841D01*
X143474720Y-86536664D01*
X143482288Y-86549290D01*
X143488582Y-86562597D01*
X143493541Y-86576457D01*
X143497118Y-86590736D01*
X143499278Y-86605297D01*
X143500000Y-86620000D01*
X143500000Y-86920000D01*
X143499278Y-86934703D01*
X143497118Y-86949264D01*
X143493541Y-86963543D01*
X143488582Y-86977403D01*
X143482288Y-86990710D01*
X143474720Y-87003336D01*
X143465952Y-87015159D01*
X143456066Y-87026066D01*
X143445159Y-87035952D01*
X143433336Y-87044720D01*
X143420710Y-87052288D01*
X143407403Y-87058582D01*
X143393543Y-87063541D01*
X143379264Y-87067118D01*
X143364703Y-87069278D01*
X143350000Y-87070000D01*
X141700000Y-87070000D01*
X141685297Y-87069278D01*
X141670736Y-87067118D01*
X141656457Y-87063541D01*
X141642597Y-87058582D01*
X141629290Y-87052288D01*
X141616664Y-87044720D01*
X141604841Y-87035952D01*
X141593934Y-87026066D01*
X141584048Y-87015159D01*
X141575280Y-87003336D01*
X141567712Y-86990710D01*
X141561418Y-86977403D01*
X141556459Y-86963543D01*
X141552882Y-86949264D01*
X141550722Y-86934703D01*
X141550000Y-86920000D01*
X141550000Y-86620000D01*
X141550722Y-86605297D01*
X141552882Y-86590736D01*
X141556459Y-86576457D01*
X141561418Y-86562597D01*
X141567712Y-86549290D01*
X141575280Y-86536664D01*
X141584048Y-86524841D01*
X141593934Y-86513934D01*
X141604841Y-86504048D01*
X141616664Y-86495280D01*
X141629290Y-86487712D01*
X141642597Y-86481418D01*
X141656457Y-86476459D01*
X141670736Y-86472882D01*
X141685297Y-86470722D01*
X141700000Y-86470000D01*
X143350000Y-86470000D01*
X143364703Y-86470722D01*
X143364703Y-86470722D01*
G37*
D18*
X142525000Y-86770000D03*
D11*
G36*
X143364703Y-85200722D02*
G01*
X143379264Y-85202882D01*
X143393543Y-85206459D01*
X143407403Y-85211418D01*
X143420710Y-85217712D01*
X143433336Y-85225280D01*
X143445159Y-85234048D01*
X143456066Y-85243934D01*
X143465952Y-85254841D01*
X143474720Y-85266664D01*
X143482288Y-85279290D01*
X143488582Y-85292597D01*
X143493541Y-85306457D01*
X143497118Y-85320736D01*
X143499278Y-85335297D01*
X143500000Y-85350000D01*
X143500000Y-85650000D01*
X143499278Y-85664703D01*
X143497118Y-85679264D01*
X143493541Y-85693543D01*
X143488582Y-85707403D01*
X143482288Y-85720710D01*
X143474720Y-85733336D01*
X143465952Y-85745159D01*
X143456066Y-85756066D01*
X143445159Y-85765952D01*
X143433336Y-85774720D01*
X143420710Y-85782288D01*
X143407403Y-85788582D01*
X143393543Y-85793541D01*
X143379264Y-85797118D01*
X143364703Y-85799278D01*
X143350000Y-85800000D01*
X141700000Y-85800000D01*
X141685297Y-85799278D01*
X141670736Y-85797118D01*
X141656457Y-85793541D01*
X141642597Y-85788582D01*
X141629290Y-85782288D01*
X141616664Y-85774720D01*
X141604841Y-85765952D01*
X141593934Y-85756066D01*
X141584048Y-85745159D01*
X141575280Y-85733336D01*
X141567712Y-85720710D01*
X141561418Y-85707403D01*
X141556459Y-85693543D01*
X141552882Y-85679264D01*
X141550722Y-85664703D01*
X141550000Y-85650000D01*
X141550000Y-85350000D01*
X141550722Y-85335297D01*
X141552882Y-85320736D01*
X141556459Y-85306457D01*
X141561418Y-85292597D01*
X141567712Y-85279290D01*
X141575280Y-85266664D01*
X141584048Y-85254841D01*
X141593934Y-85243934D01*
X141604841Y-85234048D01*
X141616664Y-85225280D01*
X141629290Y-85217712D01*
X141642597Y-85211418D01*
X141656457Y-85206459D01*
X141670736Y-85202882D01*
X141685297Y-85200722D01*
X141700000Y-85200000D01*
X143350000Y-85200000D01*
X143364703Y-85200722D01*
X143364703Y-85200722D01*
G37*
D18*
X142525000Y-85500000D03*
D11*
G36*
X143364703Y-83930722D02*
G01*
X143379264Y-83932882D01*
X143393543Y-83936459D01*
X143407403Y-83941418D01*
X143420710Y-83947712D01*
X143433336Y-83955280D01*
X143445159Y-83964048D01*
X143456066Y-83973934D01*
X143465952Y-83984841D01*
X143474720Y-83996664D01*
X143482288Y-84009290D01*
X143488582Y-84022597D01*
X143493541Y-84036457D01*
X143497118Y-84050736D01*
X143499278Y-84065297D01*
X143500000Y-84080000D01*
X143500000Y-84380000D01*
X143499278Y-84394703D01*
X143497118Y-84409264D01*
X143493541Y-84423543D01*
X143488582Y-84437403D01*
X143482288Y-84450710D01*
X143474720Y-84463336D01*
X143465952Y-84475159D01*
X143456066Y-84486066D01*
X143445159Y-84495952D01*
X143433336Y-84504720D01*
X143420710Y-84512288D01*
X143407403Y-84518582D01*
X143393543Y-84523541D01*
X143379264Y-84527118D01*
X143364703Y-84529278D01*
X143350000Y-84530000D01*
X141700000Y-84530000D01*
X141685297Y-84529278D01*
X141670736Y-84527118D01*
X141656457Y-84523541D01*
X141642597Y-84518582D01*
X141629290Y-84512288D01*
X141616664Y-84504720D01*
X141604841Y-84495952D01*
X141593934Y-84486066D01*
X141584048Y-84475159D01*
X141575280Y-84463336D01*
X141567712Y-84450710D01*
X141561418Y-84437403D01*
X141556459Y-84423543D01*
X141552882Y-84409264D01*
X141550722Y-84394703D01*
X141550000Y-84380000D01*
X141550000Y-84080000D01*
X141550722Y-84065297D01*
X141552882Y-84050736D01*
X141556459Y-84036457D01*
X141561418Y-84022597D01*
X141567712Y-84009290D01*
X141575280Y-83996664D01*
X141584048Y-83984841D01*
X141593934Y-83973934D01*
X141604841Y-83964048D01*
X141616664Y-83955280D01*
X141629290Y-83947712D01*
X141642597Y-83941418D01*
X141656457Y-83936459D01*
X141670736Y-83932882D01*
X141685297Y-83930722D01*
X141700000Y-83930000D01*
X143350000Y-83930000D01*
X143364703Y-83930722D01*
X143364703Y-83930722D01*
G37*
D18*
X142525000Y-84230000D03*
D11*
G36*
X143364703Y-82660722D02*
G01*
X143379264Y-82662882D01*
X143393543Y-82666459D01*
X143407403Y-82671418D01*
X143420710Y-82677712D01*
X143433336Y-82685280D01*
X143445159Y-82694048D01*
X143456066Y-82703934D01*
X143465952Y-82714841D01*
X143474720Y-82726664D01*
X143482288Y-82739290D01*
X143488582Y-82752597D01*
X143493541Y-82766457D01*
X143497118Y-82780736D01*
X143499278Y-82795297D01*
X143500000Y-82810000D01*
X143500000Y-83110000D01*
X143499278Y-83124703D01*
X143497118Y-83139264D01*
X143493541Y-83153543D01*
X143488582Y-83167403D01*
X143482288Y-83180710D01*
X143474720Y-83193336D01*
X143465952Y-83205159D01*
X143456066Y-83216066D01*
X143445159Y-83225952D01*
X143433336Y-83234720D01*
X143420710Y-83242288D01*
X143407403Y-83248582D01*
X143393543Y-83253541D01*
X143379264Y-83257118D01*
X143364703Y-83259278D01*
X143350000Y-83260000D01*
X141700000Y-83260000D01*
X141685297Y-83259278D01*
X141670736Y-83257118D01*
X141656457Y-83253541D01*
X141642597Y-83248582D01*
X141629290Y-83242288D01*
X141616664Y-83234720D01*
X141604841Y-83225952D01*
X141593934Y-83216066D01*
X141584048Y-83205159D01*
X141575280Y-83193336D01*
X141567712Y-83180710D01*
X141561418Y-83167403D01*
X141556459Y-83153543D01*
X141552882Y-83139264D01*
X141550722Y-83124703D01*
X141550000Y-83110000D01*
X141550000Y-82810000D01*
X141550722Y-82795297D01*
X141552882Y-82780736D01*
X141556459Y-82766457D01*
X141561418Y-82752597D01*
X141567712Y-82739290D01*
X141575280Y-82726664D01*
X141584048Y-82714841D01*
X141593934Y-82703934D01*
X141604841Y-82694048D01*
X141616664Y-82685280D01*
X141629290Y-82677712D01*
X141642597Y-82671418D01*
X141656457Y-82666459D01*
X141670736Y-82662882D01*
X141685297Y-82660722D01*
X141700000Y-82660000D01*
X143350000Y-82660000D01*
X143364703Y-82660722D01*
X143364703Y-82660722D01*
G37*
D18*
X142525000Y-82960000D03*
D11*
G36*
X143364703Y-81390722D02*
G01*
X143379264Y-81392882D01*
X143393543Y-81396459D01*
X143407403Y-81401418D01*
X143420710Y-81407712D01*
X143433336Y-81415280D01*
X143445159Y-81424048D01*
X143456066Y-81433934D01*
X143465952Y-81444841D01*
X143474720Y-81456664D01*
X143482288Y-81469290D01*
X143488582Y-81482597D01*
X143493541Y-81496457D01*
X143497118Y-81510736D01*
X143499278Y-81525297D01*
X143500000Y-81540000D01*
X143500000Y-81840000D01*
X143499278Y-81854703D01*
X143497118Y-81869264D01*
X143493541Y-81883543D01*
X143488582Y-81897403D01*
X143482288Y-81910710D01*
X143474720Y-81923336D01*
X143465952Y-81935159D01*
X143456066Y-81946066D01*
X143445159Y-81955952D01*
X143433336Y-81964720D01*
X143420710Y-81972288D01*
X143407403Y-81978582D01*
X143393543Y-81983541D01*
X143379264Y-81987118D01*
X143364703Y-81989278D01*
X143350000Y-81990000D01*
X141700000Y-81990000D01*
X141685297Y-81989278D01*
X141670736Y-81987118D01*
X141656457Y-81983541D01*
X141642597Y-81978582D01*
X141629290Y-81972288D01*
X141616664Y-81964720D01*
X141604841Y-81955952D01*
X141593934Y-81946066D01*
X141584048Y-81935159D01*
X141575280Y-81923336D01*
X141567712Y-81910710D01*
X141561418Y-81897403D01*
X141556459Y-81883543D01*
X141552882Y-81869264D01*
X141550722Y-81854703D01*
X141550000Y-81840000D01*
X141550000Y-81540000D01*
X141550722Y-81525297D01*
X141552882Y-81510736D01*
X141556459Y-81496457D01*
X141561418Y-81482597D01*
X141567712Y-81469290D01*
X141575280Y-81456664D01*
X141584048Y-81444841D01*
X141593934Y-81433934D01*
X141604841Y-81424048D01*
X141616664Y-81415280D01*
X141629290Y-81407712D01*
X141642597Y-81401418D01*
X141656457Y-81396459D01*
X141670736Y-81392882D01*
X141685297Y-81390722D01*
X141700000Y-81390000D01*
X143350000Y-81390000D01*
X143364703Y-81390722D01*
X143364703Y-81390722D01*
G37*
D18*
X142525000Y-81690000D03*
D19*
X141080000Y-96450000D03*
X141080000Y-101500000D03*
X138540000Y-96450000D03*
X138540000Y-101500000D03*
X136000000Y-96450000D03*
X136000000Y-101500000D03*
D20*
X131025000Y-73500000D03*
D21*
X128450000Y-73500000D03*
D22*
X157250000Y-77488400D03*
D23*
X151750000Y-78638400D03*
D22*
X157250000Y-79788400D03*
M02*
