M48
; DRILL file {KiCad (5.1.2-1)-1} date 2019 September 23, Monday 09:48:12
; FORMAT={3:3/ absolute / metric / suppress leading zeros}
; #@! TF.CreationDate,2019-09-23T09:48:12+02:00
; #@! TF.GenerationSoftware,Kicad,Pcbnew,(5.1.2-1)-1
FMAT,2
METRIC,TZ
T1C0.400
%
G90
G05
T1
X102000Y-76000
X102000Y-82000
X102000Y-87500
X102000Y-93000
X102000Y-99000
X102006Y-69984
X102006Y-105004
X111000Y-70000
X111000Y-76000
X111000Y-82000
X111000Y-87500
X111000Y-93000
X111000Y-99000
X111000Y-105000
X119500Y-70000
X119500Y-82000
X119500Y-87500
X119500Y-93000
X119500Y-99000
X119500Y-105000
X120650Y-76708
X127500Y-70000
X127500Y-76000
X127500Y-82000
X127500Y-87500
X127500Y-93000
X127500Y-99000
X127500Y-105000
X134049Y-98997
X135500Y-70000
X135500Y-76000
X135500Y-105000
X136000Y-93000
X139000Y-87500
X141000Y-93000
X141072Y-71831
X142500Y-90750
X143500Y-75844
X143500Y-99000
X143500Y-105004
X144182Y-93421
X144463Y-84265
X146863Y-94945
X147000Y-91000
X149543Y-83289
X149962Y-78500
X151500Y-93000
X151500Y-99000
X151500Y-105000
X155500Y-84773
X156750Y-70000
X160000Y-99000
X160000Y-105000
X160500Y-93000
X163449Y-81979
X165608Y-84455
X165750Y-70000
X168000Y-76000
X168000Y-87500
X168000Y-93000
X168000Y-99000
X168000Y-105000
X168707Y-84480
X175500Y-70000
X175500Y-76000
X175500Y-82000
X175500Y-87500
X175500Y-93000
X175500Y-99000
X175500Y-105000
X183500Y-70000
X183500Y-76000
X183500Y-87500
X183500Y-93000
X183500Y-99000
X183500Y-105000
X183515Y-82550
X191643Y-86169
X192000Y-70000
X192000Y-76000
X192000Y-82000
X192000Y-93000
X192000Y-99000
X192000Y-105000
X192215Y-90551
T0
M30
